<svg width="1704" height="383" viewBox="0 0 1704 383" fill="none" xmlns="http://www.w3.org/2000/svg">
<path d="M132.884 1.99999H142.684L138.684 52.6H130.684C127.884 40.3333 122.418 30.6667 114.284 23.6C106.284 16.5333 96.551 13 85.0844 13C77.2177 13 70.2177 14.6 64.0844 17.8C57.951 20.8667 52.751 25.3333 48.4844 31.2C44.351 36.9333 41.151 44 38.8844 52.4C36.751 60.6667 35.6844 70 35.6844 80.4C35.6844 101.067 39.8844 117 48.2844 128.2C56.8177 139.267 69.351 144.8 85.8844 144.8C99.2177 144.8 110.218 141.2 118.884 134C127.684 126.8 133.951 116.067 137.684 101.8H146.484V156H137.084L134.284 140.2C119.618 152.067 101.818 158 80.8844 158C68.751 158 57.751 156.2 47.8844 152.6C38.0177 149 29.6177 143.933 22.6844 137.4C15.751 130.733 10.351 122.667 6.48438 113.2C2.75104 103.733 0.884375 93.2 0.884375 81.6C0.884375 69.4667 2.88438 58.4 6.88438 48.4C10.8844 38.4 16.4844 29.8 23.6844 22.6C31.0177 15.4 39.6844 9.86666 49.6844 5.99999C59.8177 1.99999 71.0177 -6.19888e-06 83.2844 -6.19888e-06C91.4177 -6.19888e-06 99.0177 1.13333 106.084 3.4C113.151 5.66666 120.818 9.33333 129.084 14.4L132.884 1.99999ZM271.533 -6.19888e-06C283.533 -6.19888e-06 294.733 2.06666 305.133 6.2C315.533 10.3333 324.533 16 332.133 23.2C339.866 30.4 345.933 38.8667 350.333 48.6C354.733 58.3333 356.933 68.8667 356.933 80.2C356.933 91 354.666 101.133 350.133 110.6C345.733 120.067 339.666 128.333 331.933 135.4C324.333 142.333 315.333 147.867 304.933 152C294.533 156 283.399 158 271.533 158C259.666 158 248.533 156 238.133 152C227.733 147.867 218.666 142.333 210.933 135.4C203.199 128.333 197.133 120.067 192.733 110.6C188.333 101.133 186.133 91 186.133 80.2C186.133 68.8667 188.333 58.3333 192.733 48.6C197.133 38.8667 203.133 30.4 210.733 23.2C218.466 16 227.533 10.3333 237.933 6.2C248.333 2.06666 259.533 -6.19888e-06 271.533 -6.19888e-06ZM271.533 145C279.266 145 286.266 143.533 292.533 140.6C298.799 137.533 304.133 133.267 308.533 127.8C312.933 122.2 316.266 115.467 318.533 107.6C320.933 99.6 322.133 90.6667 322.133 80.8C322.133 70.4 320.933 61.0667 318.533 52.8C316.266 44.4 312.933 37.2667 308.533 31.4C304.133 25.4 298.799 20.8667 292.533 17.8C286.266 14.6 279.266 13 271.533 13C263.666 13 256.599 14.6 250.333 17.8C244.199 20.8667 238.933 25.4 234.533 31.4C230.133 37.2667 226.733 44.4 224.333 52.8C222.066 61.0667 220.933 70.4 220.933 80.8C220.933 90.6667 222.066 99.6 224.333 107.6C226.733 115.467 230.133 122.2 234.533 127.8C238.933 133.267 244.199 137.533 250.333 140.6C256.599 143.533 263.666 145 271.533 145ZM518.266 158L429.666 31.8H428.866V117.8C428.866 124.467 429.066 129.733 429.466 133.6C429.999 137.467 430.999 140.467 432.466 142.6C434.066 144.733 436.199 146.133 438.866 146.8C441.666 147.467 445.266 147.867 449.666 148V156H390.266V148C395.199 147.867 399.132 147.467 402.066 146.8C405.132 146 407.466 144.6 409.066 142.6C410.799 140.6 411.932 137.8 412.466 134.2C412.999 130.467 413.266 125.467 413.266 119.2V38.8C413.266 33.2 412.999 28.6 412.466 25C411.932 21.2667 410.932 18.3333 409.466 16.2C407.999 14.0667 405.866 12.6 403.066 11.8C400.399 10.8667 396.799 10.2667 392.266 10V1.99999H448.066L528.666 117.6H529.466V40.2C529.466 33.6667 529.199 28.4667 528.666 24.6C528.266 20.6 527.266 17.5333 525.666 15.4C524.199 13.2667 522.066 11.8667 519.266 11.2C516.599 10.5333 513.066 10.1333 508.666 10V1.99999H568.066V10C563.132 10.1333 559.132 10.6 556.066 11.4C553.132 12.0667 550.799 13.4 549.066 15.4C547.466 17.4 546.399 20.2667 545.866 24C545.332 27.7333 545.066 32.6667 545.066 38.8V158H518.266ZM756.352 46H747.752C747.352 39.4667 746.352 34.0667 744.752 29.8C743.285 25.4 741.152 21.9333 738.352 19.4C735.552 16.7333 732.152 14.9333 728.152 14C724.152 12.9333 719.485 12.4 714.152 12.4C708.952 12.4 704.752 12.5333 701.552 12.8C698.485 12.9333 696.085 13.2667 694.352 13.8C692.752 14.2 691.685 14.8 691.152 15.6C690.618 16.4 690.352 17.4 690.352 18.6V123.4C690.352 127.667 690.618 131.333 691.152 134.4C691.818 137.467 693.085 140 694.952 142C696.818 143.867 699.552 145.333 703.152 146.4C706.752 147.333 711.485 147.867 717.352 148V156H633.552V148C639.552 147.867 644.352 147.333 647.952 146.4C651.552 145.333 654.285 143.867 656.152 142C658.152 140 659.418 137.467 659.952 134.4C660.618 131.333 660.952 127.667 660.952 123.4V18.6C660.952 17.4 660.685 16.4 660.152 15.6C659.752 14.8 658.818 14.2 657.352 13.8C655.885 13.2667 653.752 12.9333 650.952 12.8C648.285 12.5333 644.752 12.4 640.352 12.4C635.552 12.4 630.952 12.6667 626.552 13.2C622.152 13.6 618.285 14.9333 614.952 17.2C611.618 19.3333 608.885 22.6667 606.752 27.2C604.752 31.6 603.685 37.8667 603.552 46H595.752L597.752 1.99999H754.352L756.352 46ZM864.747 109.4H808.147C801.88 123.533 798.747 133.333 798.747 138.8C798.747 142.8 800.214 145.333 803.147 146.4C806.214 147.467 810.747 148 816.747 148V156H761.947V148C765.147 147.6 767.88 147.067 770.147 146.4C772.547 145.733 774.614 144.8 776.347 143.6C778.214 142.4 779.814 140.867 781.147 139C782.48 137 783.747 134.6 784.947 131.8L837.547 -6.19888e-06H852.347L900.147 116.8C902.947 123.6 905.28 128.933 907.147 132.8C909.147 136.667 911.214 139.667 913.347 141.8C915.614 143.8 918.147 145.2 920.947 146C923.88 146.8 927.614 147.4 932.147 147.8V156H856.547V147.8C862.947 147.533 867.547 146.867 870.347 145.8C873.147 144.733 874.547 142.6 874.547 139.4C874.547 137.533 874.08 135.133 873.147 132.2C872.214 129.267 870.947 125.667 869.347 121.4L864.747 109.4ZM812.747 97.4H860.347L837.347 36.8H836.547L812.747 97.4ZM1083.98 1.99999H1093.78L1089.78 52.6H1081.78C1078.98 40.3333 1073.51 30.6667 1065.38 23.6C1057.38 16.5333 1047.64 13 1036.18 13C1028.31 13 1021.31 14.6 1015.18 17.8C1009.04 20.8667 1003.84 25.3333 999.578 31.2C995.445 36.9333 992.245 44 989.978 52.4C987.845 60.6667 986.778 70 986.778 80.4C986.778 101.067 990.978 117 999.378 128.2C1007.91 139.267 1020.44 144.8 1036.98 144.8C1050.31 144.8 1061.31 141.2 1069.98 134C1078.78 126.8 1085.04 116.067 1088.78 101.8H1097.58V156H1088.18L1085.38 140.2C1070.71 152.067 1052.91 158 1031.98 158C1019.84 158 1008.84 156.2 998.978 152.6C989.111 149 980.711 143.933 973.778 137.4C966.845 130.733 961.445 122.667 957.578 113.2C953.845 103.733 951.978 93.2 951.978 81.6C951.978 69.4667 953.978 58.4 957.978 48.4C961.978 38.4 967.578 29.8 974.778 22.6C982.111 15.4 990.778 9.86666 1000.78 5.99999C1010.91 1.99999 1022.11 -6.19888e-06 1034.38 -6.19888e-06C1042.51 -6.19888e-06 1050.11 1.13333 1057.18 3.4C1064.24 5.66666 1071.91 9.33333 1080.18 14.4L1083.98 1.99999ZM1291.23 46H1282.63C1282.23 39.4667 1281.23 34.0667 1279.63 29.8C1278.16 25.4 1276.03 21.9333 1273.23 19.4C1270.43 16.7333 1267.03 14.9333 1263.03 14C1259.03 12.9333 1254.36 12.4 1249.03 12.4C1243.83 12.4 1239.63 12.5333 1236.43 12.8C1233.36 12.9333 1230.96 13.2667 1229.23 13.8C1227.63 14.2 1226.56 14.8 1226.03 15.6C1225.49 16.4 1225.23 17.4 1225.23 18.6V123.4C1225.23 127.667 1225.49 131.333 1226.03 134.4C1226.69 137.467 1227.96 140 1229.83 142C1231.69 143.867 1234.43 145.333 1238.03 146.4C1241.63 147.333 1246.36 147.867 1252.23 148V156H1168.43V148C1174.43 147.867 1179.23 147.333 1182.83 146.4C1186.43 145.333 1189.16 143.867 1191.03 142C1193.03 140 1194.29 137.467 1194.83 134.4C1195.49 131.333 1195.83 127.667 1195.83 123.4V18.6C1195.83 17.4 1195.56 16.4 1195.03 15.6C1194.63 14.8 1193.69 14.2 1192.23 13.8C1190.76 13.2667 1188.63 12.9333 1185.83 12.8C1183.16 12.5333 1179.63 12.4 1175.23 12.4C1170.43 12.4 1165.83 12.6667 1161.43 13.2C1157.03 13.6 1153.16 14.9333 1149.83 17.2C1146.49 19.3333 1143.76 22.6667 1141.63 27.2C1139.63 31.6 1138.56 37.8667 1138.43 46H1130.63L1132.63 1.99999H1289.23L1291.23 46ZM1534.32 94C1534.32 105.333 1533.06 115.067 1530.52 123.2C1528.12 131.2 1524.32 137.8 1519.12 143C1513.92 148.2 1507.19 152 1498.92 154.4C1490.79 156.8 1480.99 158 1469.52 158C1448.06 158 1432.32 153.533 1422.32 144.6C1412.46 135.533 1407.52 121.133 1407.52 101.4V46.6C1407.52 41.4 1407.46 37.0667 1407.32 33.6C1407.19 30 1406.99 27 1406.72 24.6C1406.46 22.2 1406.06 20.2667 1405.52 18.8C1405.12 17.2 1404.59 15.8667 1403.92 14.8C1402.72 12.9333 1400.99 11.6667 1398.72 11C1396.46 10.3333 1392.99 10 1388.32 10V1.99999H1460.12V10C1454.52 10 1450.39 10.3333 1447.72 11C1445.06 11.5333 1442.99 12.6667 1441.52 14.4C1440.59 15.4667 1439.79 16.8 1439.12 18.4C1438.59 19.8667 1438.12 21.8667 1437.72 24.4C1437.46 26.8 1437.26 29.8 1437.12 33.4C1436.99 37 1436.92 41.4 1436.92 46.6V99C1436.92 114.2 1440.12 125.467 1446.52 132.8C1453.06 140 1463.06 143.6 1476.52 143.6C1503.99 143.6 1517.72 128.333 1517.72 97.8V51.6C1517.72 46 1517.59 41.2 1517.32 37.2C1517.19 33.2 1516.86 29.8 1516.32 27C1515.92 24.2 1515.32 21.8667 1514.52 20C1513.86 18.1333 1512.99 16.6 1511.92 15.4C1510.06 13.5333 1507.66 12.2 1504.72 11.4C1501.79 10.4667 1497.72 10 1492.52 10V1.99999H1557.32V10C1552.39 10 1548.59 10.4 1545.92 11.2C1543.26 11.8667 1541.19 13.1333 1539.72 15C1538.66 16.2 1537.79 17.8 1537.12 19.8C1536.46 21.6667 1535.92 24.0667 1535.52 27C1535.12 29.8 1534.79 33.2 1534.52 37.2C1534.39 41.2 1534.32 46 1534.32 51.6V94ZM1590.7 105H1598.5C1600.37 117.667 1605.43 127.667 1613.7 135C1621.97 142.2 1632.17 145.8 1644.3 145.8C1649.23 145.8 1653.77 145.2 1657.9 144C1662.03 142.8 1665.57 141.133 1668.5 139C1671.43 136.733 1673.7 134.133 1675.3 131.2C1676.9 128.133 1677.7 124.733 1677.7 121C1677.7 117.8 1677.17 115.067 1676.1 112.8C1675.17 110.4 1673.3 108.133 1670.5 106C1667.7 103.733 1663.83 101.467 1658.9 99.2C1654.1 96.9333 1647.83 94.3333 1640.1 91.4C1624.5 85.4 1612.97 78.4667 1605.5 70.6C1598.03 62.6 1594.3 53.2 1594.3 42.4C1594.3 36.1333 1595.5 30.4 1597.9 25.2C1600.3 20 1603.63 15.5333 1607.9 11.8C1612.3 8.06666 1617.5 5.19999 1623.5 3.19999C1629.63 1.06666 1636.37 -6.19888e-06 1643.7 -6.19888e-06C1650.5 -6.19888e-06 1656.9 1.06666 1662.9 3.19999C1668.9 5.33333 1674.83 8.53333 1680.7 12.8L1684.3 2.79999H1689.1L1691.3 46H1683.5C1680.3 35.0667 1675.3 26.7333 1668.5 21C1661.7 15.1333 1653.83 12.2 1644.9 12.2C1636.63 12.2 1629.9 14.2667 1624.7 18.4C1619.63 22.4 1617.1 27.6 1617.1 34C1617.1 36.8 1617.57 39.3333 1618.5 41.6C1619.43 43.7333 1621.17 45.8 1623.7 47.8C1626.23 49.8 1629.7 51.8667 1634.1 54C1638.5 56 1644.17 58.2667 1651.1 60.8C1660.43 64.4 1668.37 68.0667 1674.9 71.8C1681.57 75.4 1686.97 79.3333 1691.1 83.6C1695.37 87.7333 1698.5 92.1333 1700.5 96.8C1702.5 101.467 1703.5 106.6 1703.5 112.2C1703.5 119 1702.03 125.2 1699.1 130.8C1696.17 136.4 1692.03 141.2 1686.7 145.2C1681.5 149.2 1675.23 152.333 1667.9 154.6C1660.7 156.867 1652.7 158 1643.9 158C1635.9 158 1628.7 156.933 1622.3 154.8C1615.9 152.533 1609.3 148.933 1602.5 144L1598.5 156H1593.7L1590.7 105ZM373.653 271.185L383.793 242.975C384.4 241.285 384.833 239.942 385.093 238.945C385.353 237.948 385.483 237.082 385.483 236.345C385.483 235.218 385.115 234.46 384.378 234.07C383.685 233.637 382.428 233.42 380.608 233.42V230.95H396.403V233.42C394.41 233.42 392.893 233.832 391.853 234.655C390.856 235.478 390.011 236.822 389.318 238.685L373.003 281.65H370.728L358.248 244.665L344.403 281.65H342.128L328.608 244.34C327.828 242.26 327.113 240.527 326.463 239.14C325.856 237.71 325.185 236.583 324.448 235.76C323.755 234.937 322.953 234.352 322.043 234.005C321.133 233.658 320.028 233.485 318.728 233.485V230.95H339.918V233.485C337.708 233.485 336.148 233.68 335.238 234.07C334.371 234.46 333.938 235.218 333.938 236.345C333.938 236.908 334.025 237.558 334.198 238.295C334.371 239.032 334.631 239.898 334.978 240.895L344.858 270.99L352.853 248.5C353.46 246.81 354.045 245.25 354.608 243.82C355.215 242.347 355.691 241.025 356.038 239.855C355.431 238.598 354.868 237.558 354.348 236.735C353.871 235.912 353.373 235.262 352.853 234.785C352.376 234.308 351.856 233.983 351.293 233.81C350.773 233.593 350.21 233.485 349.603 233.485V230.95H369.493V233.485C368.236 233.485 367.218 233.528 366.438 233.615C365.658 233.702 365.051 233.853 364.618 234.07C364.228 234.243 363.946 234.503 363.773 234.85C363.643 235.197 363.578 235.608 363.578 236.085C363.578 236.735 363.686 237.537 363.903 238.49C364.163 239.4 364.51 240.57 364.943 242L373.653 271.185ZM435.184 274.955C431.501 279.418 426.929 281.65 421.469 281.65C418.913 281.65 416.594 281.238 414.514 280.415C412.434 279.548 410.636 278.357 409.119 276.84C407.646 275.28 406.498 273.438 405.674 271.315C404.851 269.148 404.439 266.765 404.439 264.165C404.439 261.522 404.873 259.073 405.739 256.82C406.606 254.567 407.819 252.638 409.379 251.035C410.983 249.432 412.868 248.175 415.034 247.265C417.244 246.355 419.649 245.9 422.249 245.9C426.453 245.9 429.703 247.048 431.999 249.345C434.296 251.598 435.444 254.848 435.444 259.095C435.444 259.702 435.314 260.07 435.054 260.2C434.838 260.33 434.296 260.395 433.429 260.395H412.044C411.958 260.742 411.893 261.175 411.849 261.695C411.806 262.172 411.784 262.713 411.784 263.32C411.784 265.573 412.044 267.632 412.564 269.495C413.128 271.315 413.908 272.875 414.904 274.175C415.944 275.475 417.158 276.493 418.544 277.23C419.974 277.923 421.556 278.27 423.289 278.27C425.109 278.27 426.799 277.88 428.359 277.1C429.919 276.277 431.523 274.955 433.169 273.135L435.184 274.955ZM424.459 257.405C425.326 257.405 426.019 257.383 426.539 257.34C427.059 257.297 427.449 257.21 427.709 257.08C427.969 256.95 428.143 256.777 428.229 256.56C428.316 256.3 428.359 255.975 428.359 255.585C428.359 253.592 427.709 252.01 426.409 250.84C425.153 249.627 423.419 249.02 421.209 249.02C416.529 249.02 413.626 251.815 412.499 257.405H424.459ZM454.135 244.34C453.961 243.127 453.745 241.805 453.485 240.375C453.268 238.945 453.03 237.558 452.77 236.215C452.553 234.872 452.358 233.68 452.185 232.64C452.055 231.557 451.99 230.755 451.99 230.235C451.99 229.325 452.271 228.567 452.835 227.96C453.441 227.353 454.178 227.05 455.045 227.05C455.911 227.05 456.626 227.353 457.19 227.96C457.796 228.567 458.1 229.347 458.1 230.3C458.1 230.82 458.013 231.622 457.84 232.705C457.71 233.788 457.536 234.98 457.32 236.28C457.103 237.58 456.865 238.945 456.605 240.375C456.388 241.805 456.193 243.127 456.02 244.34H454.135ZM486.885 270.665C486.885 272.442 486.928 273.85 487.015 274.89C487.101 275.93 487.318 276.732 487.665 277.295C488.055 277.815 488.596 278.162 489.29 278.335C489.983 278.508 490.958 278.638 492.215 278.725V281H474.925V278.725C476.181 278.682 477.178 278.573 477.915 278.4C478.651 278.183 479.215 277.815 479.605 277.295C479.995 276.775 480.233 276.038 480.32 275.085C480.45 274.088 480.515 272.767 480.515 271.12V263.515C480.515 260.568 480.471 258.272 480.385 256.625C480.341 254.978 480.125 253.765 479.735 252.985C479.388 252.205 478.825 251.75 478.045 251.62C477.265 251.447 476.181 251.36 474.795 251.36V249.085L486.17 246.615L487.08 254.675H487.34C487.903 253.375 488.596 252.183 489.42 251.1C490.286 250.017 491.218 249.107 492.215 248.37C493.211 247.59 494.251 246.983 495.335 246.55C496.418 246.117 497.523 245.9 498.65 245.9C500.036 245.9 501.12 246.247 501.9 246.94C502.723 247.59 503.135 248.478 503.135 249.605C503.135 250.645 502.81 251.468 502.16 252.075C501.51 252.638 500.578 252.92 499.365 252.92C498.671 252.92 498.086 252.833 497.61 252.66C497.133 252.487 496.7 252.313 496.31 252.14C495.963 251.923 495.616 251.728 495.27 251.555C494.966 251.382 494.62 251.295 494.23 251.295C493.06 251.295 491.89 252.053 490.72 253.57C489.55 255.043 488.64 256.928 487.99 259.225C487.643 260.482 487.361 261.912 487.145 263.515C486.971 265.075 486.885 266.722 486.885 268.455V270.665ZM547.063 274.955C543.38 279.418 538.808 281.65 533.348 281.65C530.791 281.65 528.473 281.238 526.393 280.415C524.313 279.548 522.515 278.357 520.998 276.84C519.525 275.28 518.376 273.438 517.553 271.315C516.73 269.148 516.318 266.765 516.318 264.165C516.318 261.522 516.751 259.073 517.618 256.82C518.485 254.567 519.698 252.638 521.258 251.035C522.861 249.432 524.746 248.175 526.913 247.265C529.123 246.355 531.528 245.9 534.128 245.9C538.331 245.9 541.581 247.048 543.878 249.345C546.175 251.598 547.323 254.848 547.323 259.095C547.323 259.702 547.193 260.07 546.933 260.2C546.716 260.33 546.175 260.395 545.308 260.395H523.923C523.836 260.742 523.771 261.175 523.728 261.695C523.685 262.172 523.663 262.713 523.663 263.32C523.663 265.573 523.923 267.632 524.443 269.495C525.006 271.315 525.786 272.875 526.783 274.175C527.823 275.475 529.036 276.493 530.423 277.23C531.853 277.923 533.435 278.27 535.168 278.27C536.988 278.27 538.678 277.88 540.238 277.1C541.798 276.277 543.401 274.955 545.048 273.135L547.063 274.955ZM536.338 257.405C537.205 257.405 537.898 257.383 538.418 257.34C538.938 257.297 539.328 257.21 539.588 257.08C539.848 256.95 540.021 256.777 540.108 256.56C540.195 256.3 540.238 255.975 540.238 255.585C540.238 253.592 539.588 252.01 538.288 250.84C537.031 249.627 535.298 249.02 533.088 249.02C528.408 249.02 525.505 251.815 524.378 257.405H536.338ZM639.906 270.665C639.906 272.312 639.992 273.655 640.166 274.695C640.339 275.692 640.664 276.472 641.141 277.035C641.661 277.555 642.376 277.923 643.286 278.14C644.239 278.357 645.474 278.487 646.991 278.53V281H625.931V278.53C627.447 278.487 628.661 278.357 629.571 278.14C630.524 277.923 631.261 277.555 631.781 277.035C632.301 276.515 632.647 275.778 632.821 274.825C632.994 273.872 633.081 272.637 633.081 271.12V257.015H606.756V270.665C606.756 272.312 606.842 273.655 607.016 274.695C607.189 275.692 607.514 276.472 607.991 277.035C608.511 277.555 609.226 277.923 610.136 278.14C611.089 278.357 612.324 278.487 613.841 278.53V281H592.781V278.53C594.297 278.487 595.511 278.357 596.421 278.14C597.374 277.923 598.111 277.555 598.631 277.035C599.151 276.515 599.497 275.778 599.671 274.825C599.844 273.872 599.931 272.637 599.931 271.12V240.83C599.931 239.313 599.844 238.1 599.671 237.19C599.541 236.237 599.237 235.5 598.761 234.98C598.327 234.417 597.677 234.048 596.811 233.875C595.944 233.658 594.817 233.507 593.431 233.42V230.95H613.191V233.42C611.804 233.463 610.677 233.593 609.811 233.81C608.987 234.027 608.337 234.417 607.861 234.98C607.427 235.543 607.124 236.323 606.951 237.32C606.821 238.317 606.756 239.638 606.756 241.285V253.765H633.081V240.83C633.081 239.313 632.994 238.1 632.821 237.19C632.691 236.237 632.387 235.5 631.911 234.98C631.477 234.417 630.827 234.048 629.961 233.875C629.094 233.658 627.967 233.507 626.581 233.42V230.95H646.341V233.42C644.954 233.463 643.827 233.593 642.961 233.81C642.137 234.027 641.487 234.417 641.011 234.98C640.577 235.543 640.274 236.323 640.101 237.32C639.971 238.317 639.906 239.638 639.906 241.285V270.665ZM683.053 261.76C680.583 262.713 678.481 263.645 676.748 264.555C675.058 265.465 673.693 266.375 672.653 267.285C671.613 268.195 670.855 269.105 670.378 270.015C669.945 270.925 669.728 271.857 669.728 272.81C669.728 274.24 670.205 275.41 671.158 276.32C672.111 277.23 673.368 277.685 674.928 277.685C676.055 277.685 677.095 277.403 678.048 276.84C679.045 276.277 679.911 275.518 680.648 274.565C681.385 273.568 681.97 272.42 682.403 271.12C682.836 269.777 683.053 268.368 683.053 266.895V261.76ZM683.053 258.965V256.3C683.053 251.013 680.8 248.37 676.293 248.37C675.556 248.37 674.928 248.435 674.408 248.565C673.888 248.695 673.455 248.912 673.108 249.215C672.761 249.518 672.436 249.952 672.133 250.515C671.873 251.078 671.613 251.772 671.353 252.595C670.876 253.852 670.4 254.697 669.923 255.13C669.49 255.52 668.84 255.715 667.973 255.715C665.806 255.715 664.723 254.632 664.723 252.465C664.723 250.385 665.828 248.782 668.038 247.655C670.248 246.485 673.39 245.9 677.463 245.9C681.796 245.9 684.873 246.68 686.693 248.24C688.513 249.757 689.423 252.357 689.423 256.04V270.6C689.423 275.54 690.398 278.01 692.348 278.01C692.955 278.01 693.54 277.945 694.103 277.815C694.666 277.642 695.143 277.23 695.533 276.58L696.443 278.14C695.923 279.137 694.97 279.982 693.583 280.675C692.196 281.325 690.745 281.65 689.228 281.65C687.321 281.65 685.891 281.043 684.938 279.83C684.028 278.617 683.573 276.905 683.573 274.695H683.248C682.121 276.818 680.561 278.508 678.568 279.765C676.575 280.978 674.365 281.585 671.938 281.585C669.208 281.585 667.063 280.892 665.503 279.505C663.943 278.118 663.163 276.255 663.163 273.915C663.163 272.875 663.336 271.878 663.683 270.925C664.073 269.972 664.68 269.062 665.503 268.195C666.326 267.328 667.41 266.483 668.753 265.66C670.096 264.793 671.743 263.927 673.693 263.06L683.053 258.965ZM720.409 251.23H720.669C722.056 249.583 723.551 248.283 725.154 247.33C726.758 246.377 728.621 245.9 730.744 245.9C733.214 245.9 735.468 246.355 737.504 247.265C739.584 248.132 741.383 249.367 742.899 250.97C744.416 252.573 745.586 254.48 746.409 256.69C747.276 258.857 747.709 261.24 747.709 263.84C747.709 266.483 747.276 268.91 746.409 271.12C745.543 273.287 744.351 275.15 742.834 276.71C741.318 278.27 739.519 279.483 737.439 280.35C735.359 281.217 733.106 281.65 730.679 281.65C728.686 281.65 726.866 281.325 725.219 280.675C723.616 279.982 722.099 278.877 720.669 277.36V286.85C720.669 288.583 720.756 289.97 720.929 291.01C721.103 292.05 721.449 292.852 721.969 293.415C722.489 293.978 723.226 294.368 724.179 294.585C725.176 294.802 726.476 294.932 728.079 294.975V297.25H708.059V294.975C709.359 294.932 710.399 294.802 711.179 294.585C712.003 294.368 712.631 293.978 713.064 293.415C713.541 292.852 713.866 292.072 714.039 291.075C714.213 290.122 714.299 288.865 714.299 287.305V262.995C714.299 260.482 714.256 258.423 714.169 256.82C714.126 255.217 714.018 254.112 713.844 253.505C713.628 252.465 713.129 251.772 712.349 251.425C711.569 251.035 710.096 250.84 707.929 250.84V248.63L720.409 246.16V251.23ZM722.359 253.115C721.796 253.982 721.363 255.022 721.059 256.235C720.799 257.405 720.669 258.943 720.669 260.85V265.92C720.669 267.09 720.691 268.108 720.734 268.975C720.821 269.798 720.929 270.513 721.059 271.12C721.189 271.727 721.363 272.268 721.579 272.745C721.796 273.222 722.078 273.677 722.424 274.11C723.421 275.497 724.613 276.58 725.999 277.36C727.386 278.097 728.838 278.465 730.354 278.465C733.344 278.465 735.749 277.208 737.569 274.695C739.433 272.182 740.364 268.65 740.364 264.1C740.364 261.847 740.104 259.81 739.584 257.99C739.108 256.127 738.414 254.545 737.504 253.245C736.594 251.902 735.489 250.862 734.189 250.125C732.933 249.388 731.524 249.02 729.964 249.02C728.404 249.02 726.953 249.388 725.609 250.125C724.309 250.818 723.226 251.815 722.359 253.115ZM774.926 251.23H775.186C776.572 249.583 778.067 248.283 779.671 247.33C781.274 246.377 783.137 245.9 785.261 245.9C787.731 245.9 789.984 246.355 792.021 247.265C794.101 248.132 795.899 249.367 797.416 250.97C798.932 252.573 800.102 254.48 800.926 256.69C801.792 258.857 802.226 261.24 802.226 263.84C802.226 266.483 801.792 268.91 800.926 271.12C800.059 273.287 798.867 275.15 797.351 276.71C795.834 278.27 794.036 279.483 791.956 280.35C789.876 281.217 787.622 281.65 785.196 281.65C783.202 281.65 781.382 281.325 779.736 280.675C778.132 279.982 776.616 278.877 775.186 277.36V286.85C775.186 288.583 775.272 289.97 775.446 291.01C775.619 292.05 775.966 292.852 776.486 293.415C777.006 293.978 777.742 294.368 778.696 294.585C779.692 294.802 780.992 294.932 782.596 294.975V297.25H762.576V294.975C763.876 294.932 764.916 294.802 765.696 294.585C766.519 294.368 767.147 293.978 767.581 293.415C768.057 292.852 768.382 292.072 768.556 291.075C768.729 290.122 768.816 288.865 768.816 287.305V262.995C768.816 260.482 768.772 258.423 768.686 256.82C768.642 255.217 768.534 254.112 768.361 253.505C768.144 252.465 767.646 251.772 766.866 251.425C766.086 251.035 764.612 250.84 762.446 250.84V248.63L774.926 246.16V251.23ZM776.876 253.115C776.312 253.982 775.879 255.022 775.576 256.235C775.316 257.405 775.186 258.943 775.186 260.85V265.92C775.186 267.09 775.207 268.108 775.251 268.975C775.337 269.798 775.446 270.513 775.576 271.12C775.706 271.727 775.879 272.268 776.096 272.745C776.312 273.222 776.594 273.677 776.941 274.11C777.937 275.497 779.129 276.58 780.516 277.36C781.902 278.097 783.354 278.465 784.871 278.465C787.861 278.465 790.266 277.208 792.086 274.695C793.949 272.182 794.881 268.65 794.881 264.1C794.881 261.847 794.621 259.81 794.101 257.99C793.624 256.127 792.931 254.545 792.021 253.245C791.111 251.902 790.006 250.862 788.706 250.125C787.449 249.388 786.041 249.02 784.481 249.02C782.921 249.02 781.469 249.388 780.126 250.125C778.826 250.818 777.742 251.815 776.876 253.115ZM832.914 291.205C830.921 295.668 827.822 297.9 823.619 297.9C820.889 297.9 819.524 296.882 819.524 294.845C819.524 293.762 819.892 292.96 820.629 292.44C821.409 291.963 822.817 291.552 824.854 291.205C825.764 291.075 826.544 290.88 827.194 290.62C827.844 290.403 828.429 290.1 828.949 289.71C829.469 289.363 829.924 288.908 830.314 288.345C830.747 287.782 831.159 287.088 831.549 286.265L833.824 281.715L821.344 254.61C820.781 253.397 820.282 252.443 819.849 251.75C819.459 251.013 819.026 250.45 818.549 250.06C818.116 249.627 817.617 249.345 817.054 249.215C816.491 249.042 815.776 248.912 814.909 248.825V246.55H832.134V248.825C829.231 248.825 827.779 249.54 827.779 250.97C827.779 251.533 827.952 252.422 828.299 253.635C828.646 254.848 829.079 256.083 829.599 257.34L836.749 274.63H837.074L842.989 260.005C843.552 258.575 844.007 257.405 844.354 256.495C844.744 255.585 845.026 254.848 845.199 254.285C845.416 253.678 845.546 253.18 845.589 252.79C845.676 252.4 845.719 252.032 845.719 251.685C845.719 250.558 845.394 249.8 844.744 249.41C844.137 249.02 842.946 248.825 841.169 248.825V246.55H855.469V248.825C854.646 248.825 853.952 248.933 853.389 249.15C852.826 249.367 852.241 249.865 851.634 250.645C851.071 251.382 850.421 252.465 849.684 253.895C848.991 255.325 848.124 257.253 847.084 259.68L832.914 291.205ZM942.716 243.365H940.051C939.921 241.502 939.618 239.942 939.141 238.685C938.664 237.428 937.971 236.453 937.061 235.76C936.194 235.023 935.089 234.503 933.746 234.2C932.403 233.897 930.799 233.745 928.936 233.745C927.333 233.745 926.033 233.788 925.036 233.875C924.083 233.918 923.346 234.027 922.826 234.2C922.306 234.373 921.959 234.59 921.786 234.85C921.656 235.067 921.591 235.37 921.591 235.76V270.535C921.591 271.922 921.678 273.113 921.851 274.11C922.068 275.107 922.458 275.93 923.021 276.58C923.628 277.187 924.473 277.663 925.556 278.01C926.683 278.313 928.156 278.487 929.976 278.53V281H905.406V278.53C907.226 278.487 908.699 278.313 909.826 278.01C910.953 277.663 911.798 277.187 912.361 276.58C912.968 275.93 913.358 275.107 913.531 274.11C913.748 273.113 913.856 271.922 913.856 270.535V235.76C913.856 235.37 913.769 235.067 913.596 234.85C913.466 234.59 913.163 234.373 912.686 234.2C912.253 234.027 911.624 233.918 910.801 233.875C909.978 233.788 908.873 233.745 907.486 233.745C905.796 233.745 904.214 233.81 902.741 233.94C901.311 234.07 900.054 234.46 898.971 235.11C897.931 235.717 897.086 236.67 896.436 237.97C895.786 239.27 895.439 241.068 895.396 243.365H892.991V230.95H942.066L942.716 243.365ZM968.092 245.9C970.562 245.9 972.902 246.355 975.112 247.265C977.322 248.132 979.251 249.345 980.897 250.905C982.587 252.465 983.909 254.328 984.862 256.495C985.859 258.618 986.357 260.958 986.357 263.515C986.357 266.158 985.859 268.585 984.862 270.795C983.909 273.005 982.587 274.912 980.897 276.515C979.251 278.118 977.322 279.375 975.112 280.285C972.902 281.195 970.562 281.65 968.092 281.65C965.666 281.65 963.347 281.217 961.137 280.35C958.971 279.44 957.064 278.183 955.417 276.58C953.771 274.977 952.471 273.07 951.517 270.86C950.564 268.607 950.087 266.158 950.087 263.515C950.087 260.958 950.564 258.597 951.517 256.43C952.471 254.263 953.771 252.4 955.417 250.84C957.064 249.28 958.971 248.067 961.137 247.2C963.347 246.333 965.666 245.9 968.092 245.9ZM968.092 249.02C966.489 249.02 965.016 249.367 963.672 250.06C962.372 250.753 961.246 251.75 960.292 253.05C959.382 254.307 958.667 255.845 958.147 257.665C957.671 259.442 957.432 261.413 957.432 263.58C957.432 265.833 957.671 267.87 958.147 269.69C958.667 271.51 959.382 273.07 960.292 274.37C961.246 275.627 962.372 276.602 963.672 277.295C964.972 277.988 966.446 278.335 968.092 278.335C969.739 278.335 971.234 277.988 972.577 277.295C973.921 276.602 975.069 275.605 976.022 274.305C976.976 273.005 977.712 271.445 978.232 269.625C978.752 267.805 979.012 265.79 979.012 263.58C979.012 261.413 978.752 259.442 978.232 257.665C977.712 255.888 976.976 254.372 976.022 253.115C975.069 251.815 973.921 250.818 972.577 250.125C971.234 249.388 969.739 249.02 968.092 249.02ZM1058.08 262.865H1040.72C1039.98 264.642 1039.36 266.223 1038.84 267.61C1038.32 268.953 1037.88 270.123 1037.54 271.12C1037.23 272.117 1037.02 272.962 1036.89 273.655C1036.76 274.348 1036.69 274.912 1036.69 275.345C1036.69 276.558 1037.08 277.403 1037.86 277.88C1038.64 278.313 1039.94 278.53 1041.76 278.53V281H1025.97V278.53C1026.96 278.4 1027.81 278.227 1028.5 278.01C1029.24 277.793 1029.87 277.49 1030.39 277.1C1030.95 276.71 1031.43 276.212 1031.82 275.605C1032.25 274.955 1032.66 274.175 1033.05 273.265L1049.95 230.95H1052.75L1067.5 267.61C1068.5 270.037 1069.36 271.987 1070.1 273.46C1070.84 274.89 1071.55 275.973 1072.25 276.71C1072.94 277.447 1073.68 277.923 1074.46 278.14C1075.28 278.357 1076.25 278.465 1077.38 278.465V281H1056.19V278.465C1058.49 278.465 1060.07 278.248 1060.94 277.815C1061.8 277.382 1062.24 276.667 1062.24 275.67C1062.24 275.237 1062.21 274.847 1062.17 274.5C1062.13 274.11 1062.04 273.698 1061.91 273.265C1061.82 272.832 1061.67 272.355 1061.46 271.835C1061.28 271.272 1061.04 270.622 1060.74 269.885L1058.08 262.865ZM1042.02 259.615H1056.84L1049.63 240.44L1042.02 259.615ZM1101.01 270.795C1101.01 272.572 1101.05 273.98 1101.14 275.02C1101.22 276.017 1101.44 276.797 1101.79 277.36C1102.18 277.88 1102.72 278.227 1103.41 278.4C1104.15 278.573 1105.14 278.703 1106.4 278.79V281H1089.37V278.79C1090.58 278.703 1091.54 278.573 1092.23 278.4C1092.97 278.227 1093.53 277.88 1093.92 277.36C1094.31 276.84 1094.55 276.103 1094.64 275.15C1094.77 274.197 1094.83 272.897 1094.83 271.25V262.605C1094.83 257.448 1094.7 254.307 1094.44 253.18C1094.31 252.617 1094.14 252.162 1093.92 251.815C1093.75 251.425 1093.47 251.143 1093.08 250.97C1092.69 250.753 1092.19 250.623 1091.58 250.58C1090.97 250.493 1090.19 250.45 1089.24 250.45V248.37L1099.64 245.9L1100.42 252.335H1100.68C1102.33 250.298 1104.26 248.717 1106.47 247.59C1108.68 246.463 1111.08 245.9 1113.68 245.9C1115.67 245.9 1117.49 246.225 1119.14 246.875C1120.79 247.525 1122.04 248.413 1122.91 249.54C1123.65 250.537 1124.17 251.837 1124.47 253.44C1124.77 255 1124.93 257.167 1124.93 259.94V270.795C1124.93 272.572 1124.97 273.98 1125.06 275.02C1125.19 276.017 1125.42 276.797 1125.77 277.36C1126.12 277.88 1126.64 278.227 1127.33 278.4C1128.07 278.573 1129.02 278.703 1130.19 278.79V281H1113.36V278.79C1114.57 278.747 1115.52 278.638 1116.22 278.465C1116.95 278.248 1117.49 277.88 1117.84 277.36C1118.23 276.84 1118.47 276.103 1118.56 275.15C1118.69 274.153 1118.75 272.853 1118.75 271.25V262.67C1118.75 260.2 1118.62 258.12 1118.36 256.43C1118.1 254.74 1117.67 253.375 1117.06 252.335C1116.5 251.295 1115.74 250.558 1114.79 250.125C1113.83 249.648 1112.68 249.41 1111.34 249.41C1109.39 249.41 1107.59 249.93 1105.95 250.97C1104.34 251.967 1103.09 253.353 1102.18 255.13C1101.96 255.563 1101.76 255.975 1101.59 256.365C1101.46 256.755 1101.35 257.21 1101.27 257.73C1101.18 258.25 1101.11 258.857 1101.07 259.55C1101.03 260.2 1101.01 261.045 1101.01 262.085V270.795ZM1147.77 281H1146.34V269.82H1147.97C1149.66 275.93 1152.73 278.985 1157.2 278.985C1158.93 278.985 1160.29 278.573 1161.29 277.75C1162.33 276.883 1162.85 275.583 1162.85 273.85C1162.85 273.2 1162.74 272.658 1162.53 272.225C1162.35 271.748 1161.98 271.272 1161.42 270.795C1160.9 270.275 1160.14 269.69 1159.15 269.04C1158.19 268.39 1156.91 267.567 1155.31 266.57C1153.84 265.66 1152.56 264.815 1151.48 264.035C1150.39 263.255 1149.48 262.475 1148.75 261.695C1148.01 260.872 1147.45 260.005 1147.06 259.095C1146.71 258.185 1146.54 257.123 1146.54 255.91C1146.54 254.437 1146.77 253.093 1147.25 251.88C1147.77 250.623 1148.46 249.562 1149.33 248.695C1150.2 247.828 1151.22 247.157 1152.39 246.68C1153.56 246.16 1154.83 245.9 1156.22 245.9C1157.39 245.9 1158.6 246.095 1159.86 246.485C1161.12 246.832 1162.22 247.308 1163.18 247.915L1164.48 246.55H1165.71V255.91H1164.02C1163.07 253.267 1162.03 251.382 1160.9 250.255C1159.77 249.128 1158.39 248.565 1156.74 248.565C1155.27 248.565 1154.08 248.955 1153.17 249.735C1152.3 250.515 1151.87 251.598 1151.87 252.985C1151.87 253.722 1151.97 254.372 1152.19 254.935C1152.45 255.455 1152.84 255.975 1153.36 256.495C1153.88 257.015 1154.53 257.557 1155.31 258.12C1156.13 258.64 1157.11 259.247 1158.24 259.94C1160.1 261.11 1161.68 262.15 1162.98 263.06C1164.32 263.97 1165.41 264.88 1166.23 265.79C1167.05 266.657 1167.66 267.567 1168.05 268.52C1168.44 269.473 1168.64 270.557 1168.64 271.77C1168.64 274.847 1167.64 277.273 1165.65 279.05C1163.65 280.783 1161.03 281.65 1157.78 281.65C1154.4 281.65 1151.5 280.675 1149.07 278.725L1147.77 281ZM1199.79 281.65H1197.38L1188.93 254.61C1188.54 253.397 1188.17 252.422 1187.83 251.685C1187.48 250.948 1187.07 250.363 1186.59 249.93C1186.11 249.497 1185.55 249.215 1184.9 249.085C1184.25 248.912 1183.45 248.825 1182.5 248.825V246.55H1199.72V248.825C1198.03 248.825 1196.84 249.02 1196.15 249.41C1195.45 249.8 1195.11 250.472 1195.11 251.425C1195.11 251.858 1195.17 252.378 1195.3 252.985C1195.43 253.548 1195.6 254.263 1195.82 255.13L1200.24 270.665H1200.5L1210.06 246.55H1212.07L1220.72 270.665H1220.98L1224.88 260.135C1225.4 258.705 1225.83 257.513 1226.18 256.56C1226.52 255.563 1226.78 254.74 1226.96 254.09C1227.17 253.397 1227.32 252.833 1227.41 252.4C1227.5 251.967 1227.54 251.555 1227.54 251.165C1227.54 250.212 1227.26 249.583 1226.7 249.28C1226.13 248.977 1224.96 248.825 1223.19 248.825V246.55H1236.19V248.825C1235.54 248.825 1234.97 248.933 1234.5 249.15C1234.06 249.323 1233.61 249.692 1233.13 250.255C1232.7 250.818 1232.24 251.62 1231.77 252.66C1231.29 253.7 1230.7 255.065 1230.01 256.755L1219.94 281.65H1217.53L1209.6 257.665H1209.34L1199.79 281.65ZM1280.32 274.955C1276.64 279.418 1272.06 281.65 1266.6 281.65C1264.05 281.65 1261.73 281.238 1259.65 280.415C1257.57 279.548 1255.77 278.357 1254.25 276.84C1252.78 275.28 1251.63 273.438 1250.81 271.315C1249.99 269.148 1249.57 266.765 1249.57 264.165C1249.57 261.522 1250.01 259.073 1250.87 256.82C1251.74 254.567 1252.95 252.638 1254.51 251.035C1256.12 249.432 1258 248.175 1260.17 247.265C1262.38 246.355 1264.78 245.9 1267.38 245.9C1271.59 245.9 1274.84 247.048 1277.13 249.345C1279.43 251.598 1280.58 254.848 1280.58 259.095C1280.58 259.702 1280.45 260.07 1280.19 260.2C1279.97 260.33 1279.43 260.395 1278.56 260.395H1257.18C1257.09 260.742 1257.03 261.175 1256.98 261.695C1256.94 262.172 1256.92 262.713 1256.92 263.32C1256.92 265.573 1257.18 267.632 1257.7 269.495C1258.26 271.315 1259.04 272.875 1260.04 274.175C1261.08 275.475 1262.29 276.493 1263.68 277.23C1265.11 277.923 1266.69 278.27 1268.42 278.27C1270.24 278.27 1271.93 277.88 1273.49 277.1C1275.05 276.277 1276.66 274.955 1278.3 273.135L1280.32 274.955ZM1269.59 257.405C1270.46 257.405 1271.15 257.383 1271.67 257.34C1272.19 257.297 1272.58 257.21 1272.84 257.08C1273.1 256.95 1273.28 256.777 1273.36 256.56C1273.45 256.3 1273.49 255.975 1273.49 255.585C1273.49 253.592 1272.84 252.01 1271.54 250.84C1270.29 249.627 1268.55 249.02 1266.34 249.02C1261.66 249.02 1258.76 251.815 1257.63 257.405H1269.59ZM1308.48 270.665C1308.48 272.442 1308.52 273.85 1308.61 274.89C1308.7 275.93 1308.91 276.732 1309.26 277.295C1309.65 277.815 1310.19 278.162 1310.88 278.335C1311.58 278.508 1312.55 278.638 1313.81 278.725V281H1296.52V278.725C1297.78 278.682 1298.77 278.573 1299.51 278.4C1300.25 278.183 1300.81 277.815 1301.2 277.295C1301.59 276.775 1301.83 276.038 1301.91 275.085C1302.04 274.088 1302.11 272.767 1302.11 271.12V263.515C1302.11 260.568 1302.07 258.272 1301.98 256.625C1301.94 254.978 1301.72 253.765 1301.33 252.985C1300.98 252.205 1300.42 251.75 1299.64 251.62C1298.86 251.447 1297.78 251.36 1296.39 251.36V249.085L1307.76 246.615L1308.67 254.675H1308.93C1309.5 253.375 1310.19 252.183 1311.01 251.1C1311.88 250.017 1312.81 249.107 1313.81 248.37C1314.81 247.59 1315.85 246.983 1316.93 246.55C1318.01 246.117 1319.12 245.9 1320.24 245.9C1321.63 245.9 1322.71 246.247 1323.49 246.94C1324.32 247.59 1324.73 248.478 1324.73 249.605C1324.73 250.645 1324.4 251.468 1323.75 252.075C1323.1 252.638 1322.17 252.92 1320.96 252.92C1320.27 252.92 1319.68 252.833 1319.2 252.66C1318.73 252.487 1318.29 252.313 1317.9 252.14C1317.56 251.923 1317.21 251.728 1316.86 251.555C1316.56 251.382 1316.21 251.295 1315.82 251.295C1314.65 251.295 1313.48 252.053 1312.31 253.57C1311.14 255.043 1310.23 256.928 1309.58 259.225C1309.24 260.482 1308.96 261.912 1308.74 263.515C1308.57 265.075 1308.48 266.722 1308.48 268.455V270.665ZM261.999 347.865H244.644C243.907 349.642 243.279 351.223 242.759 352.61C242.239 353.953 241.805 355.123 241.459 356.12C241.155 357.117 240.939 357.962 240.809 358.655C240.679 359.348 240.614 359.912 240.614 360.345C240.614 361.558 241.004 362.403 241.784 362.88C242.564 363.313 243.864 363.53 245.684 363.53V366H229.889V363.53C230.885 363.4 231.73 363.227 232.424 363.01C233.16 362.793 233.789 362.49 234.309 362.1C234.872 361.71 235.349 361.212 235.739 360.605C236.172 359.955 236.584 359.175 236.974 358.265L253.874 315.95H256.669L271.424 352.61C272.42 355.037 273.287 356.987 274.024 358.46C274.76 359.89 275.475 360.973 276.169 361.71C276.862 362.447 277.599 362.923 278.379 363.14C279.202 363.357 280.177 363.465 281.304 363.465V366H260.114V363.465C262.41 363.465 263.992 363.248 264.859 362.815C265.725 362.382 266.159 361.667 266.159 360.67C266.159 360.237 266.137 359.847 266.094 359.5C266.05 359.11 265.964 358.698 265.834 358.265C265.747 357.832 265.595 357.355 265.379 356.835C265.205 356.272 264.967 355.622 264.664 354.885L261.999 347.865ZM245.944 344.615H260.764L253.549 325.44L245.944 344.615ZM304.929 355.795C304.929 357.572 304.972 358.98 305.059 360.02C305.145 361.017 305.362 361.797 305.709 362.36C306.099 362.88 306.64 363.227 307.334 363.4C308.07 363.573 309.067 363.703 310.324 363.79V366H293.294V363.79C294.507 363.703 295.46 363.573 296.154 363.4C296.89 363.227 297.454 362.88 297.844 362.36C298.234 361.84 298.472 361.103 298.559 360.15C298.689 359.197 298.754 357.897 298.754 356.25V347.605C298.754 342.448 298.624 339.307 298.364 338.18C298.234 337.617 298.06 337.162 297.844 336.815C297.67 336.425 297.389 336.143 296.999 335.97C296.609 335.753 296.11 335.623 295.504 335.58C294.897 335.493 294.117 335.45 293.164 335.45V333.37L303.564 330.9L304.344 337.335H304.604C306.25 335.298 308.179 333.717 310.389 332.59C312.599 331.463 315.004 330.9 317.604 330.9C319.597 330.9 321.417 331.225 323.064 331.875C324.71 332.525 325.967 333.413 326.834 334.54C327.57 335.537 328.09 336.837 328.394 338.44C328.697 340 328.849 342.167 328.849 344.94V355.795C328.849 357.572 328.892 358.98 328.979 360.02C329.109 361.017 329.347 361.797 329.694 362.36C330.04 362.88 330.56 363.227 331.254 363.4C331.99 363.573 332.944 363.703 334.114 363.79V366H317.279V363.79C318.492 363.747 319.445 363.638 320.139 363.465C320.875 363.248 321.417 362.88 321.764 362.36C322.154 361.84 322.392 361.103 322.479 360.15C322.609 359.153 322.674 357.853 322.674 356.25V347.67C322.674 345.2 322.544 343.12 322.284 341.43C322.024 339.74 321.59 338.375 320.984 337.335C320.42 336.295 319.662 335.558 318.709 335.125C317.755 334.648 316.607 334.41 315.264 334.41C313.314 334.41 311.515 334.93 309.869 335.97C308.265 336.967 307.009 338.353 306.099 340.13C305.882 340.563 305.687 340.975 305.514 341.365C305.384 341.755 305.275 342.21 305.189 342.73C305.102 343.25 305.037 343.857 304.994 344.55C304.95 345.2 304.929 346.045 304.929 347.085V355.795ZM363.099 376.205C361.105 380.668 358.007 382.9 353.804 382.9C351.074 382.9 349.709 381.882 349.709 379.845C349.709 378.762 350.077 377.96 350.814 377.44C351.594 376.963 353.002 376.552 355.039 376.205C355.949 376.075 356.729 375.88 357.379 375.62C358.029 375.403 358.614 375.1 359.134 374.71C359.654 374.363 360.109 373.908 360.499 373.345C360.932 372.782 361.344 372.088 361.734 371.265L364.009 366.715L351.529 339.61C350.965 338.397 350.467 337.443 350.034 336.75C349.644 336.013 349.21 335.45 348.734 335.06C348.3 334.627 347.802 334.345 347.239 334.215C346.675 334.042 345.96 333.912 345.094 333.825V331.55H362.319V333.825C359.415 333.825 357.964 334.54 357.964 335.97C357.964 336.533 358.137 337.422 358.484 338.635C358.83 339.848 359.264 341.083 359.784 342.34L366.934 359.63H367.259L373.174 345.005C373.737 343.575 374.192 342.405 374.539 341.495C374.929 340.585 375.21 339.848 375.384 339.285C375.6 338.678 375.73 338.18 375.774 337.79C375.86 337.4 375.904 337.032 375.904 336.685C375.904 335.558 375.579 334.8 374.929 334.41C374.322 334.02 373.13 333.825 371.354 333.825V331.55H385.654V333.825C384.83 333.825 384.137 333.933 383.574 334.15C383.01 334.367 382.425 334.865 381.819 335.645C381.255 336.382 380.605 337.465 379.869 338.895C379.175 340.325 378.309 342.253 377.269 344.68L363.099 376.205ZM454.652 315.3C458.465 315.3 462.018 315.972 465.312 317.315C468.605 318.658 471.465 320.5 473.892 322.84C476.318 325.18 478.225 327.953 479.612 331.16C480.998 334.323 481.692 337.747 481.692 341.43C481.692 345.503 480.847 349.23 479.157 352.61C477.51 355.947 475.3 358.828 472.527 361.255C470.707 362.815 468.67 364.137 466.417 365.22C464.163 366.26 461.802 367.235 459.332 368.145C458.162 368.622 457.013 369.12 455.887 369.64C454.803 370.16 453.807 370.767 452.897 371.46V371.72C453.157 371.677 453.503 371.633 453.937 371.59C454.413 371.59 454.825 371.59 455.172 371.59C457.122 371.59 458.942 371.828 460.632 372.305C462.322 372.825 463.968 373.388 465.572 373.995C467.175 374.645 468.778 375.208 470.382 375.685C471.985 376.205 473.675 376.465 475.452 376.465C477.488 376.465 479.027 376.032 480.067 375.165C481.107 374.298 481.952 372.803 482.602 370.68H484.227C484.313 371.07 484.378 371.503 484.422 371.98C484.465 372.457 484.487 372.933 484.487 373.41C484.487 374.797 484.183 376.053 483.577 377.18C483.013 378.35 482.212 379.347 481.172 380.17C480.175 381.037 478.983 381.708 477.597 382.185C476.21 382.662 474.715 382.9 473.112 382.9C470.685 382.9 468.432 382.423 466.352 381.47C464.315 380.56 462.365 379.542 460.502 378.415C458.682 377.332 456.927 376.313 455.237 375.36C453.547 374.45 451.878 373.995 450.232 373.995C449.105 373.995 448.195 374.212 447.502 374.645C446.808 375.078 446.18 375.555 445.617 376.075C445.053 376.638 444.512 377.137 443.992 377.57C443.515 378.003 442.908 378.22 442.172 378.22C440.915 378.22 440.287 377.678 440.287 376.595C440.287 376.292 440.33 376.032 440.417 375.815C440.503 375.598 440.677 375.338 440.937 375.035C441.24 374.775 441.673 374.45 442.237 374.06C442.8 373.713 443.58 373.258 444.577 372.695L453.027 367.885C449.387 367.755 446.007 366.997 442.887 365.61C439.767 364.18 437.08 362.295 434.827 359.955C432.573 357.572 430.797 354.82 429.497 351.7C428.24 348.537 427.612 345.157 427.612 341.56C427.612 337.833 428.305 334.367 429.692 331.16C431.078 327.953 432.985 325.18 435.412 322.84C437.838 320.5 440.698 318.658 443.992 317.315C447.285 315.972 450.838 315.3 454.652 315.3ZM454.652 364.7C457.512 364.7 460.068 364.158 462.322 363.075C464.618 361.992 466.568 360.453 468.172 358.46C469.818 356.423 471.075 353.997 471.942 351.18C472.808 348.32 473.242 345.113 473.242 341.56C473.242 338.093 472.808 334.973 471.942 332.2C471.075 329.383 469.84 327 468.237 325.05C466.633 323.057 464.683 321.54 462.387 320.5C460.09 319.417 457.512 318.875 454.652 318.875C451.792 318.875 449.213 319.417 446.917 320.5C444.62 321.54 442.67 323.057 441.067 325.05C439.463 327 438.228 329.383 437.362 332.2C436.495 334.973 436.062 338.093 436.062 341.56C436.062 345.113 436.495 348.32 437.362 351.18C438.228 353.997 439.463 356.423 441.067 358.46C442.67 360.453 444.62 361.992 446.917 363.075C449.213 364.158 451.792 364.7 454.652 364.7ZM525.972 341.95C525.972 340.173 525.929 338.787 525.842 337.79C525.756 336.75 525.517 335.97 525.127 335.45C524.781 334.887 524.239 334.518 523.502 334.345C522.809 334.128 521.834 333.955 520.577 333.825V331.55H532.342V351.505C532.342 353.975 532.364 355.99 532.407 357.55C532.494 359.11 532.602 360.28 532.732 361.06C532.819 361.623 532.949 362.078 533.122 362.425C533.339 362.728 533.642 362.988 534.032 363.205C534.422 363.378 534.921 363.508 535.527 363.595C536.177 363.638 537.001 363.66 537.997 363.66V365.935L527.272 366.715L526.557 358.915H526.297C524.651 361.602 522.744 363.573 520.577 364.83C518.454 366.043 516.222 366.65 513.882 366.65C512.062 366.65 510.286 366.303 508.552 365.61C506.862 364.917 505.584 363.985 504.717 362.815C503.981 361.862 503.439 360.54 503.092 358.85C502.789 357.16 502.637 354.972 502.637 352.285V341.95C502.637 340.173 502.594 338.787 502.507 337.79C502.421 336.75 502.182 335.97 501.792 335.45C501.446 334.887 500.904 334.518 500.167 334.345C499.474 334.128 498.499 333.955 497.242 333.825V331.55H509.007V349.295C509.007 354.018 509.549 357.442 510.632 359.565C511.759 361.688 513.536 362.75 515.962 362.75C519.776 362.75 522.744 360.258 524.867 355.275C525.084 354.755 525.257 354.278 525.387 353.845C525.517 353.412 525.626 352.935 525.712 352.415C525.799 351.895 525.864 351.31 525.907 350.66C525.951 350.01 525.972 349.23 525.972 348.32V341.95ZM583.752 359.955C580.069 364.418 575.497 366.65 570.037 366.65C567.481 366.65 565.162 366.238 563.082 365.415C561.002 364.548 559.204 363.357 557.687 361.84C556.214 360.28 555.066 358.438 554.242 356.315C553.419 354.148 553.007 351.765 553.007 349.165C553.007 346.522 553.441 344.073 554.307 341.82C555.174 339.567 556.387 337.638 557.947 336.035C559.551 334.432 561.436 333.175 563.602 332.265C565.812 331.355 568.217 330.9 570.817 330.9C575.021 330.9 578.271 332.048 580.567 334.345C582.864 336.598 584.012 339.848 584.012 344.095C584.012 344.702 583.882 345.07 583.622 345.2C583.406 345.33 582.864 345.395 581.997 345.395H560.612C560.526 345.742 560.461 346.175 560.417 346.695C560.374 347.172 560.352 347.713 560.352 348.32C560.352 350.573 560.612 352.632 561.132 354.495C561.696 356.315 562.476 357.875 563.472 359.175C564.512 360.475 565.726 361.493 567.112 362.23C568.542 362.923 570.124 363.27 571.857 363.27C573.677 363.27 575.367 362.88 576.927 362.1C578.487 361.277 580.091 359.955 581.737 358.135L583.752 359.955ZM573.027 342.405C573.894 342.405 574.587 342.383 575.107 342.34C575.627 342.297 576.017 342.21 576.277 342.08C576.537 341.95 576.711 341.777 576.797 341.56C576.884 341.3 576.927 340.975 576.927 340.585C576.927 338.592 576.277 337.01 574.977 335.84C573.721 334.627 571.987 334.02 569.777 334.02C565.097 334.02 562.194 336.815 561.067 342.405H573.027ZM603.073 366H601.643V354.82H603.268C604.958 360.93 608.035 363.985 612.498 363.985C614.231 363.985 615.596 363.573 616.593 362.75C617.633 361.883 618.153 360.583 618.153 358.85C618.153 358.2 618.045 357.658 617.828 357.225C617.655 356.748 617.286 356.272 616.723 355.795C616.203 355.275 615.445 354.69 614.448 354.04C613.495 353.39 612.216 352.567 610.613 351.57C609.14 350.66 607.861 349.815 606.778 349.035C605.695 348.255 604.785 347.475 604.048 346.695C603.311 345.872 602.748 345.005 602.358 344.095C602.011 343.185 601.838 342.123 601.838 340.91C601.838 339.437 602.076 338.093 602.553 336.88C603.073 335.623 603.766 334.562 604.633 333.695C605.5 332.828 606.518 332.157 607.688 331.68C608.858 331.16 610.136 330.9 611.523 330.9C612.693 330.9 613.906 331.095 615.163 331.485C616.42 331.832 617.525 332.308 618.478 332.915L619.778 331.55H621.013V340.91H619.323C618.37 338.267 617.33 336.382 616.203 335.255C615.076 334.128 613.69 333.565 612.043 333.565C610.57 333.565 609.378 333.955 608.468 334.735C607.601 335.515 607.168 336.598 607.168 337.985C607.168 338.722 607.276 339.372 607.493 339.935C607.753 340.455 608.143 340.975 608.663 341.495C609.183 342.015 609.833 342.557 610.613 343.12C611.436 343.64 612.411 344.247 613.538 344.94C615.401 346.11 616.983 347.15 618.283 348.06C619.626 348.97 620.71 349.88 621.533 350.79C622.356 351.657 622.963 352.567 623.353 353.52C623.743 354.473 623.938 355.557 623.938 356.77C623.938 359.847 622.941 362.273 620.948 364.05C618.955 365.783 616.333 366.65 613.083 366.65C609.703 366.65 606.8 365.675 604.373 363.725L603.073 366ZM640 335.645V333.24C642.296 331.897 644.095 330.553 645.395 329.21C646.695 327.867 647.691 326.263 648.385 324.4H650.27V332.59H658.98V335.645H650.27V355.405C650.27 356.922 650.335 358.2 650.465 359.24C650.638 360.28 650.898 361.125 651.245 361.775C651.591 362.382 652.046 362.815 652.61 363.075C653.173 363.335 653.888 363.465 654.755 363.465C655.838 363.465 656.748 363.248 657.485 362.815C658.265 362.338 659.023 361.558 659.76 360.475L661.385 361.71C660.778 363.313 659.716 364.548 658.2 365.415C656.726 366.238 654.885 366.65 652.675 366.65C649.815 366.65 647.626 365.978 646.11 364.635C644.636 363.248 643.9 361.277 643.9 358.72V335.645H640ZM687.185 355.665C687.185 357.355 687.25 358.72 687.38 359.76C687.553 360.757 687.857 361.558 688.29 362.165C688.723 362.728 689.33 363.118 690.11 363.335C690.89 363.552 691.93 363.682 693.23 363.725V366H674.575V363.725C675.875 363.682 676.937 363.552 677.76 363.335C678.583 363.075 679.212 362.685 679.645 362.165C680.122 361.602 680.425 360.843 680.555 359.89C680.728 358.893 680.815 357.637 680.815 356.12V347.8C680.815 345.287 680.772 343.228 680.685 341.625C680.642 339.978 680.533 338.852 680.36 338.245C680.143 337.248 679.645 336.577 678.865 336.23C678.085 335.84 676.612 335.645 674.445 335.645V333.37L687.185 330.9V355.665ZM679.71 317.705C679.71 316.578 680.1 315.625 680.88 314.845C681.66 314.065 682.613 313.675 683.74 313.675C684.867 313.675 685.82 314.065 686.6 314.845C687.38 315.625 687.77 316.578 687.77 317.705C687.77 318.832 687.38 319.785 686.6 320.565C685.82 321.345 684.867 321.735 683.74 321.735C682.613 321.735 681.66 321.345 680.88 320.565C680.1 319.785 679.71 318.832 679.71 317.705ZM726.043 330.9C728.513 330.9 730.853 331.355 733.063 332.265C735.273 333.132 737.202 334.345 738.848 335.905C740.538 337.465 741.86 339.328 742.813 341.495C743.81 343.618 744.308 345.958 744.308 348.515C744.308 351.158 743.81 353.585 742.813 355.795C741.86 358.005 740.538 359.912 738.848 361.515C737.202 363.118 735.273 364.375 733.063 365.285C730.853 366.195 728.513 366.65 726.043 366.65C723.617 366.65 721.298 366.217 719.088 365.35C716.922 364.44 715.015 363.183 713.368 361.58C711.722 359.977 710.422 358.07 709.468 355.86C708.515 353.607 708.038 351.158 708.038 348.515C708.038 345.958 708.515 343.597 709.468 341.43C710.422 339.263 711.722 337.4 713.368 335.84C715.015 334.28 716.922 333.067 719.088 332.2C721.298 331.333 723.617 330.9 726.043 330.9ZM726.043 334.02C724.44 334.02 722.967 334.367 721.623 335.06C720.323 335.753 719.197 336.75 718.243 338.05C717.333 339.307 716.618 340.845 716.098 342.665C715.622 344.442 715.383 346.413 715.383 348.58C715.383 350.833 715.622 352.87 716.098 354.69C716.618 356.51 717.333 358.07 718.243 359.37C719.197 360.627 720.323 361.602 721.623 362.295C722.923 362.988 724.397 363.335 726.043 363.335C727.69 363.335 729.185 362.988 730.528 362.295C731.872 361.602 733.02 360.605 733.973 359.305C734.927 358.005 735.663 356.445 736.183 354.625C736.703 352.805 736.963 350.79 736.963 348.58C736.963 346.413 736.703 344.442 736.183 342.665C735.663 340.888 734.927 339.372 733.973 338.115C733.02 336.815 731.872 335.818 730.528 335.125C729.185 334.388 727.69 334.02 726.043 334.02ZM771.888 355.795C771.888 357.572 771.931 358.98 772.018 360.02C772.104 361.017 772.321 361.797 772.668 362.36C773.058 362.88 773.599 363.227 774.293 363.4C775.029 363.573 776.026 363.703 777.283 363.79V366H760.253V363.79C761.466 363.703 762.419 363.573 763.113 363.4C763.849 363.227 764.413 362.88 764.803 362.36C765.193 361.84 765.431 361.103 765.518 360.15C765.648 359.197 765.713 357.897 765.713 356.25V347.605C765.713 342.448 765.583 339.307 765.323 338.18C765.193 337.617 765.019 337.162 764.803 336.815C764.629 336.425 764.348 336.143 763.958 335.97C763.568 335.753 763.069 335.623 762.463 335.58C761.856 335.493 761.076 335.45 760.123 335.45V333.37L770.523 330.9L771.303 337.335H771.563C773.209 335.298 775.138 333.717 777.348 332.59C779.558 331.463 781.963 330.9 784.563 330.9C786.556 330.9 788.376 331.225 790.023 331.875C791.669 332.525 792.926 333.413 793.793 334.54C794.529 335.537 795.049 336.837 795.353 338.44C795.656 340 795.808 342.167 795.808 344.94V355.795C795.808 357.572 795.851 358.98 795.938 360.02C796.068 361.017 796.306 361.797 796.653 362.36C796.999 362.88 797.519 363.227 798.213 363.4C798.949 363.573 799.903 363.703 801.073 363.79V366H784.238V363.79C785.451 363.747 786.404 363.638 787.098 363.465C787.834 363.248 788.376 362.88 788.723 362.36C789.113 361.84 789.351 361.103 789.438 360.15C789.568 359.153 789.633 357.853 789.633 356.25V347.67C789.633 345.2 789.503 343.12 789.243 341.43C788.983 339.74 788.549 338.375 787.943 337.335C787.379 336.295 786.621 335.558 785.668 335.125C784.714 334.648 783.566 334.41 782.223 334.41C780.273 334.41 778.474 334.93 776.828 335.97C775.224 336.967 773.968 338.353 773.058 340.13C772.841 340.563 772.646 340.975 772.473 341.365C772.343 341.755 772.234 342.21 772.148 342.73C772.061 343.25 771.996 343.857 771.953 344.55C771.909 345.2 771.888 346.045 771.888 347.085V355.795ZM818.652 366H817.222V354.82H818.847C820.537 360.93 823.614 363.985 828.077 363.985C829.811 363.985 831.176 363.573 832.172 362.75C833.212 361.883 833.732 360.583 833.732 358.85C833.732 358.2 833.624 357.658 833.407 357.225C833.234 356.748 832.866 356.272 832.302 355.795C831.782 355.275 831.024 354.69 830.027 354.04C829.074 353.39 827.796 352.567 826.192 351.57C824.719 350.66 823.441 349.815 822.357 349.035C821.274 348.255 820.364 347.475 819.627 346.695C818.891 345.872 818.327 345.005 817.937 344.095C817.591 343.185 817.417 342.123 817.417 340.91C817.417 339.437 817.656 338.093 818.132 336.88C818.652 335.623 819.346 334.562 820.212 333.695C821.079 332.828 822.097 332.157 823.267 331.68C824.437 331.16 825.716 330.9 827.102 330.9C828.272 330.9 829.486 331.095 830.742 331.485C831.999 331.832 833.104 332.308 834.057 332.915L835.357 331.55H836.592V340.91H834.902C833.949 338.267 832.909 336.382 831.782 335.255C830.656 334.128 829.269 333.565 827.622 333.565C826.149 333.565 824.957 333.955 824.047 334.735C823.181 335.515 822.747 336.598 822.747 337.985C822.747 338.722 822.856 339.372 823.072 339.935C823.332 340.455 823.722 340.975 824.242 341.495C824.762 342.015 825.412 342.557 826.192 343.12C827.016 343.64 827.991 344.247 829.117 344.94C830.981 346.11 832.562 347.15 833.862 348.06C835.206 348.97 836.289 349.88 837.112 350.79C837.936 351.657 838.542 352.567 838.932 353.52C839.322 354.473 839.517 355.557 839.517 356.77C839.517 359.847 838.521 362.273 836.527 364.05C834.534 365.783 831.912 366.65 828.662 366.65C825.282 366.65 822.379 365.675 819.952 363.725L818.652 366ZM886.912 324.01C886.262 322.883 885.655 321.973 885.092 321.28C884.528 320.543 883.943 319.958 883.337 319.525C882.773 319.092 882.167 318.81 881.517 318.68C880.867 318.507 880.087 318.42 879.177 318.42V315.95H899.652V318.42C897.485 318.42 895.947 318.593 895.037 318.94C894.17 319.243 893.737 319.807 893.737 320.63C893.737 321.54 894.235 322.84 895.232 324.53L905.307 341.755H905.567L912.912 329.405C914.298 327.065 915.273 325.223 915.837 323.88C916.443 322.537 916.747 321.453 916.747 320.63C916.747 319.807 916.422 319.243 915.772 318.94C915.165 318.593 914.082 318.42 912.522 318.42V315.95H927.407V318.42C926.497 318.42 925.673 318.55 924.937 318.81C924.244 319.07 923.507 319.59 922.727 320.37C921.947 321.15 921.08 322.233 920.127 323.62C919.217 325.007 918.09 326.827 916.747 329.08L906.737 345.98V353.715C906.737 355.838 906.802 357.55 906.932 358.85C907.105 360.107 907.43 361.082 907.907 361.775C908.427 362.468 909.142 362.945 910.052 363.205C911.005 363.422 912.262 363.53 913.822 363.53V366H892.762V363.53C894.322 363.53 895.557 363.422 896.467 363.205C897.42 362.945 898.135 362.49 898.612 361.84C899.132 361.147 899.478 360.193 899.652 358.98C899.825 357.767 899.912 356.163 899.912 354.17V346.24L886.912 324.01ZM952.16 330.9C954.63 330.9 956.97 331.355 959.18 332.265C961.39 333.132 963.318 334.345 964.965 335.905C966.655 337.465 967.976 339.328 968.93 341.495C969.926 343.618 970.425 345.958 970.425 348.515C970.425 351.158 969.926 353.585 968.93 355.795C967.976 358.005 966.655 359.912 964.965 361.515C963.318 363.118 961.39 364.375 959.18 365.285C956.97 366.195 954.63 366.65 952.16 366.65C949.733 366.65 947.415 366.217 945.205 365.35C943.038 364.44 941.131 363.183 939.485 361.58C937.838 359.977 936.538 358.07 935.585 355.86C934.631 353.607 934.155 351.158 934.155 348.515C934.155 345.958 934.631 343.597 935.585 341.43C936.538 339.263 937.838 337.4 939.485 335.84C941.131 334.28 943.038 333.067 945.205 332.2C947.415 331.333 949.733 330.9 952.16 330.9ZM952.16 334.02C950.556 334.02 949.083 334.367 947.74 335.06C946.44 335.753 945.313 336.75 944.36 338.05C943.45 339.307 942.735 340.845 942.215 342.665C941.738 344.442 941.5 346.413 941.5 348.58C941.5 350.833 941.738 352.87 942.215 354.69C942.735 356.51 943.45 358.07 944.36 359.37C945.313 360.627 946.44 361.602 947.74 362.295C949.04 362.988 950.513 363.335 952.16 363.335C953.806 363.335 955.301 362.988 956.645 362.295C957.988 361.602 959.136 360.605 960.09 359.305C961.043 358.005 961.78 356.445 962.3 354.625C962.82 352.805 963.08 350.79 963.08 348.58C963.08 346.413 962.82 344.442 962.3 342.665C961.78 340.888 961.043 339.372 960.09 338.115C959.136 336.815 957.988 335.818 956.645 335.125C955.301 334.388 953.806 334.02 952.16 334.02ZM1014.06 341.95C1014.06 340.173 1014.02 338.787 1013.93 337.79C1013.84 336.75 1013.6 335.97 1013.21 335.45C1012.87 334.887 1012.33 334.518 1011.59 334.345C1010.9 334.128 1009.92 333.955 1008.66 333.825V331.55H1020.43V351.505C1020.43 353.975 1020.45 355.99 1020.49 357.55C1020.58 359.11 1020.69 360.28 1020.82 361.06C1020.91 361.623 1021.04 362.078 1021.21 362.425C1021.43 362.728 1021.73 362.988 1022.12 363.205C1022.51 363.378 1023.01 363.508 1023.61 363.595C1024.26 363.638 1025.09 363.66 1026.08 363.66V365.935L1015.36 366.715L1014.64 358.915H1014.38C1012.74 361.602 1010.83 363.573 1008.66 364.83C1006.54 366.043 1004.31 366.65 1001.97 366.65C1000.15 366.65 998.372 366.303 996.639 365.61C994.949 364.917 993.671 363.985 992.804 362.815C992.067 361.862 991.526 360.54 991.179 358.85C990.876 357.16 990.724 354.972 990.724 352.285V341.95C990.724 340.173 990.681 338.787 990.594 337.79C990.507 336.75 990.269 335.97 989.879 335.45C989.532 334.887 988.991 334.518 988.254 334.345C987.561 334.128 986.586 333.955 985.329 333.825V331.55H997.094V349.295C997.094 354.018 997.636 357.442 998.719 359.565C999.846 361.688 1001.62 362.75 1004.05 362.75C1007.86 362.75 1010.83 360.258 1012.95 355.275C1013.17 354.755 1013.34 354.278 1013.47 353.845C1013.6 353.412 1013.71 352.935 1013.8 352.415C1013.89 351.895 1013.95 351.31 1013.99 350.66C1014.04 350.01 1014.06 349.23 1014.06 348.32V341.95ZM1102.72 354.365L1119.62 315.95H1134.18V318.42C1132.79 318.463 1131.67 318.637 1130.8 318.94C1129.98 319.243 1129.33 319.763 1128.85 320.5C1128.42 321.193 1128.11 322.168 1127.94 323.425C1127.81 324.682 1127.75 326.285 1127.75 328.235V353.715C1127.75 355.882 1127.83 357.593 1128.01 358.85C1128.18 360.107 1128.5 361.082 1128.98 361.775C1129.5 362.468 1130.22 362.923 1131.13 363.14C1132.08 363.357 1133.31 363.487 1134.83 363.53V366H1113.77V363.53C1115.29 363.487 1116.5 363.357 1117.41 363.14C1118.36 362.88 1119.1 362.425 1119.62 361.775C1120.14 361.125 1120.49 360.215 1120.66 359.045C1120.83 357.832 1120.92 356.207 1120.92 354.17V324.01H1120.27L1101.29 366.65H1099.86L1081.21 324.01H1080.95V353.715C1080.95 355.882 1081.03 357.593 1081.21 358.85C1081.38 360.107 1081.7 361.082 1082.18 361.775C1082.7 362.468 1083.42 362.923 1084.33 363.14C1085.28 363.357 1086.51 363.487 1088.03 363.53V366H1069.9V363.53C1071.41 363.487 1072.63 363.357 1073.54 363.14C1074.49 362.88 1075.23 362.425 1075.75 361.775C1076.27 361.125 1076.61 360.215 1076.79 359.045C1076.96 357.832 1077.05 356.207 1077.05 354.17V327.78C1077.05 325.96 1076.96 324.465 1076.79 323.295C1076.66 322.082 1076.35 321.128 1075.88 320.435C1075.44 319.742 1074.79 319.265 1073.93 319.005C1073.06 318.702 1071.93 318.507 1070.55 318.42V315.95H1086.08L1102.46 354.365H1102.72ZM1170.9 346.76C1168.43 347.713 1166.32 348.645 1164.59 349.555C1162.9 350.465 1161.54 351.375 1160.5 352.285C1159.46 353.195 1158.7 354.105 1158.22 355.015C1157.79 355.925 1157.57 356.857 1157.57 357.81C1157.57 359.24 1158.05 360.41 1159 361.32C1159.95 362.23 1161.21 362.685 1162.77 362.685C1163.9 362.685 1164.94 362.403 1165.89 361.84C1166.89 361.277 1167.75 360.518 1168.49 359.565C1169.23 358.568 1169.81 357.42 1170.25 356.12C1170.68 354.777 1170.9 353.368 1170.9 351.895V346.76ZM1170.9 343.965V341.3C1170.9 336.013 1168.64 333.37 1164.14 333.37C1163.4 333.37 1162.77 333.435 1162.25 333.565C1161.73 333.695 1161.3 333.912 1160.95 334.215C1160.6 334.518 1160.28 334.952 1159.98 335.515C1159.72 336.078 1159.46 336.772 1159.2 337.595C1158.72 338.852 1158.24 339.697 1157.77 340.13C1157.33 340.52 1156.68 340.715 1155.82 340.715C1153.65 340.715 1152.57 339.632 1152.57 337.465C1152.57 335.385 1153.67 333.782 1155.88 332.655C1158.09 331.485 1161.23 330.9 1165.31 330.9C1169.64 330.9 1172.72 331.68 1174.54 333.24C1176.36 334.757 1177.27 337.357 1177.27 341.04V355.6C1177.27 360.54 1178.24 363.01 1180.19 363.01C1180.8 363.01 1181.38 362.945 1181.95 362.815C1182.51 362.642 1182.99 362.23 1183.38 361.58L1184.29 363.14C1183.77 364.137 1182.81 364.982 1181.43 365.675C1180.04 366.325 1178.59 366.65 1177.07 366.65C1175.16 366.65 1173.73 366.043 1172.78 364.83C1171.87 363.617 1171.42 361.905 1171.42 359.695H1171.09C1169.96 361.818 1168.4 363.508 1166.41 364.765C1164.42 365.978 1162.21 366.585 1159.78 366.585C1157.05 366.585 1154.91 365.892 1153.35 364.505C1151.79 363.118 1151.01 361.255 1151.01 358.915C1151.01 357.875 1151.18 356.878 1151.53 355.925C1151.92 354.972 1152.52 354.062 1153.35 353.195C1154.17 352.328 1155.25 351.483 1156.6 350.66C1157.94 349.793 1159.59 348.927 1161.54 348.06L1170.9 343.965ZM1211.47 376.205C1209.48 380.668 1206.38 382.9 1202.18 382.9C1199.45 382.9 1198.08 381.882 1198.08 379.845C1198.08 378.762 1198.45 377.96 1199.19 377.44C1199.97 376.963 1201.37 376.552 1203.41 376.205C1204.32 376.075 1205.1 375.88 1205.75 375.62C1206.4 375.403 1206.99 375.1 1207.51 374.71C1208.03 374.363 1208.48 373.908 1208.87 373.345C1209.3 372.782 1209.72 372.088 1210.11 371.265L1212.38 366.715L1199.9 339.61C1199.34 338.397 1198.84 337.443 1198.41 336.75C1198.02 336.013 1197.58 335.45 1197.11 335.06C1196.67 334.627 1196.17 334.345 1195.61 334.215C1195.05 334.042 1194.33 333.912 1193.47 333.825V331.55H1210.69V333.825C1207.79 333.825 1206.34 334.54 1206.34 335.97C1206.34 336.533 1206.51 337.422 1206.86 338.635C1207.2 339.848 1207.64 341.083 1208.16 342.34L1215.31 359.63H1215.63L1221.55 345.005C1222.11 343.575 1222.56 342.405 1222.91 341.495C1223.3 340.585 1223.58 339.848 1223.76 339.285C1223.97 338.678 1224.1 338.18 1224.15 337.79C1224.23 337.4 1224.28 337.032 1224.28 336.685C1224.28 335.558 1223.95 334.8 1223.3 334.41C1222.69 334.02 1221.5 333.825 1219.73 333.825V331.55H1234.03V333.825C1233.2 333.825 1232.51 333.933 1231.95 334.15C1231.38 334.367 1230.8 334.865 1230.19 335.645C1229.63 336.382 1228.98 337.465 1228.24 338.895C1227.55 340.325 1226.68 342.253 1225.64 344.68L1211.47 376.205ZM1322.26 355.665C1322.26 357.312 1322.35 358.655 1322.52 359.695C1322.7 360.692 1323.02 361.472 1323.5 362.035C1324.02 362.555 1324.73 362.923 1325.64 363.14C1326.6 363.357 1327.83 363.487 1329.35 363.53V366H1308.29V363.53C1309.81 363.487 1311.02 363.357 1311.93 363.14C1312.88 362.923 1313.62 362.555 1314.14 362.035C1314.66 361.515 1315.01 360.778 1315.18 359.825C1315.35 358.872 1315.44 357.637 1315.44 356.12V342.015H1289.11V355.665C1289.11 357.312 1289.2 358.655 1289.37 359.695C1289.55 360.692 1289.87 361.472 1290.35 362.035C1290.87 362.555 1291.58 362.923 1292.49 363.14C1293.45 363.357 1294.68 363.487 1296.2 363.53V366H1275.14V363.53C1276.66 363.487 1277.87 363.357 1278.78 363.14C1279.73 362.923 1280.47 362.555 1280.99 362.035C1281.51 361.515 1281.86 360.778 1282.03 359.825C1282.2 358.872 1282.29 357.637 1282.29 356.12V325.83C1282.29 324.313 1282.2 323.1 1282.03 322.19C1281.9 321.237 1281.6 320.5 1281.12 319.98C1280.69 319.417 1280.04 319.048 1279.17 318.875C1278.3 318.658 1277.18 318.507 1275.79 318.42V315.95H1295.55V318.42C1294.16 318.463 1293.04 318.593 1292.17 318.81C1291.35 319.027 1290.7 319.417 1290.22 319.98C1289.79 320.543 1289.48 321.323 1289.31 322.32C1289.18 323.317 1289.11 324.638 1289.11 326.285V338.765H1315.44V325.83C1315.44 324.313 1315.35 323.1 1315.18 322.19C1315.05 321.237 1314.75 320.5 1314.27 319.98C1313.84 319.417 1313.19 319.048 1312.32 318.875C1311.45 318.658 1310.33 318.507 1308.94 318.42V315.95H1328.7V318.42C1327.31 318.463 1326.19 318.593 1325.32 318.81C1324.5 319.027 1323.85 319.417 1323.37 319.98C1322.94 320.543 1322.63 321.323 1322.46 322.32C1322.33 323.317 1322.26 324.638 1322.26 326.285V355.665ZM1365.41 346.76C1362.94 347.713 1360.84 348.645 1359.11 349.555C1357.42 350.465 1356.05 351.375 1355.01 352.285C1353.97 353.195 1353.21 354.105 1352.74 355.015C1352.3 355.925 1352.09 356.857 1352.09 357.81C1352.09 359.24 1352.56 360.41 1353.52 361.32C1354.47 362.23 1355.73 362.685 1357.29 362.685C1358.41 362.685 1359.45 362.403 1360.41 361.84C1361.4 361.277 1362.27 360.518 1363.01 359.565C1363.74 358.568 1364.33 357.42 1364.76 356.12C1365.19 354.777 1365.41 353.368 1365.41 351.895V346.76ZM1365.41 343.965V341.3C1365.41 336.013 1363.16 333.37 1358.65 333.37C1357.91 333.37 1357.29 333.435 1356.77 333.565C1356.25 333.695 1355.81 333.912 1355.47 334.215C1355.12 334.518 1354.79 334.952 1354.49 335.515C1354.23 336.078 1353.97 336.772 1353.71 337.595C1353.23 338.852 1352.76 339.697 1352.28 340.13C1351.85 340.52 1351.2 340.715 1350.33 340.715C1348.16 340.715 1347.08 339.632 1347.08 337.465C1347.08 335.385 1348.19 333.782 1350.4 332.655C1352.61 331.485 1355.75 330.9 1359.82 330.9C1364.15 330.9 1367.23 331.68 1369.05 333.24C1370.87 334.757 1371.78 337.357 1371.78 341.04V355.6C1371.78 360.54 1372.76 363.01 1374.71 363.01C1375.31 363.01 1375.9 362.945 1376.46 362.815C1377.02 362.642 1377.5 362.23 1377.89 361.58L1378.8 363.14C1378.28 364.137 1377.33 364.982 1375.94 365.675C1374.55 366.325 1373.1 366.65 1371.59 366.65C1369.68 366.65 1368.25 366.043 1367.3 364.83C1366.39 363.617 1365.93 361.905 1365.93 359.695H1365.61C1364.48 361.818 1362.92 363.508 1360.93 364.765C1358.93 365.978 1356.72 366.585 1354.3 366.585C1351.57 366.585 1349.42 365.892 1347.86 364.505C1346.3 363.118 1345.52 361.255 1345.52 358.915C1345.52 357.875 1345.69 356.878 1346.04 355.925C1346.43 354.972 1347.04 354.062 1347.86 353.195C1348.68 352.328 1349.77 351.483 1351.11 350.66C1352.45 349.793 1354.1 348.927 1356.05 348.06L1365.41 343.965ZM1394.61 339.61C1394.09 338.31 1393.61 337.292 1393.18 336.555C1392.79 335.775 1392.35 335.19 1391.88 334.8C1391.4 334.41 1390.86 334.172 1390.25 334.085C1389.69 333.955 1389 333.868 1388.17 333.825V331.55H1405.4V333.825C1404.53 333.868 1403.82 333.912 1403.25 333.955C1402.69 333.998 1402.23 334.107 1401.89 334.28C1401.58 334.41 1401.37 334.627 1401.24 334.93C1401.11 335.19 1401.04 335.58 1401.04 336.1C1401.04 336.837 1401.13 337.53 1401.3 338.18C1401.52 338.83 1401.74 339.48 1401.95 340.13L1408.84 358.98H1409.1L1415.02 345.005C1415.93 342.838 1416.58 341.105 1416.97 339.805C1417.36 338.505 1417.55 337.357 1417.55 336.36C1417.55 335.363 1417.29 334.692 1416.77 334.345C1416.25 333.998 1415.13 333.825 1413.39 333.825V331.55H1426.33V333.825C1425.63 333.825 1425.01 333.998 1424.44 334.345C1423.88 334.692 1423.38 335.125 1422.95 335.645C1422.6 336.122 1422.23 336.772 1421.84 337.595C1421.5 338.375 1421.13 339.198 1420.74 340.065C1420.39 340.932 1420.07 341.798 1419.76 342.665C1419.46 343.488 1419.18 344.16 1418.92 344.68L1409.36 366.715H1405.59L1394.61 339.61ZM1470.39 359.955C1466.71 364.418 1462.14 366.65 1456.68 366.65C1454.12 366.65 1451.8 366.238 1449.72 365.415C1447.64 364.548 1445.84 363.357 1444.33 361.84C1442.85 360.28 1441.7 358.438 1440.88 356.315C1440.06 354.148 1439.65 351.765 1439.65 349.165C1439.65 346.522 1440.08 344.073 1440.95 341.82C1441.81 339.567 1443.03 337.638 1444.59 336.035C1446.19 334.432 1448.07 333.175 1450.24 332.265C1452.45 331.355 1454.86 330.9 1457.46 330.9C1461.66 330.9 1464.91 332.048 1467.21 334.345C1469.5 336.598 1470.65 339.848 1470.65 344.095C1470.65 344.702 1470.52 345.07 1470.26 345.2C1470.04 345.33 1469.5 345.395 1468.64 345.395H1447.25C1447.16 345.742 1447.1 346.175 1447.06 346.695C1447.01 347.172 1446.99 347.713 1446.99 348.32C1446.99 350.573 1447.25 352.632 1447.77 354.495C1448.33 356.315 1449.11 357.875 1450.11 359.175C1451.15 360.475 1452.36 361.493 1453.75 362.23C1455.18 362.923 1456.76 363.27 1458.5 363.27C1460.32 363.27 1462.01 362.88 1463.57 362.1C1465.13 361.277 1466.73 359.955 1468.38 358.135L1470.39 359.955ZM1459.67 342.405C1460.53 342.405 1461.23 342.383 1461.75 342.34C1462.27 342.297 1462.66 342.21 1462.92 342.08C1463.18 341.95 1463.35 341.777 1463.44 341.56C1463.52 341.3 1463.57 340.975 1463.57 340.585C1463.57 338.592 1462.92 337.01 1461.62 335.84C1460.36 334.627 1458.63 334.02 1456.42 334.02C1451.74 334.02 1448.83 336.815 1447.71 342.405H1459.67Z" fill="white"/>
</svg>
