<svg width="1181" height="377" viewBox="0 0 1181 377" fill="none" xmlns="http://www.w3.org/2000/svg">
<path d="M187.89 156H50.0898V148C54.4898 147.867 58.0898 147.467 60.8898 146.8C63.6898 146.133 65.8232 145 67.2898 143.4C68.7565 141.8 69.7565 139.533 70.2898 136.6C70.8232 133.667 71.0898 129.867 71.0898 125.2V32.8C71.0898 28.1333 70.8232 24.4 70.2898 21.6C69.8898 18.6667 69.0232 16.4 67.6898 14.8C66.3565 13.0667 64.4232 11.9333 61.8898 11.4C59.4898 10.7333 56.2898 10.2667 52.2898 10V1.99999H121.29V10C116.757 10.1333 113.09 10.5333 110.29 11.2C107.623 11.8667 105.557 13.0667 104.09 14.8C102.623 16.5333 101.623 18.9333 101.09 22C100.69 25.0667 100.49 29.1333 100.49 34.2V118C100.49 123.6 101.023 128.2 102.09 131.8C103.29 135.267 105.29 138 108.09 140C110.89 141.867 114.623 143.2 119.29 144C123.957 144.667 129.757 145 136.69 145C144.423 145 150.89 144.533 156.09 143.6C161.29 142.667 165.623 140.933 169.09 138.4C172.69 135.733 175.557 132.2 177.69 127.8C179.823 123.4 181.623 117.667 183.09 110.6H191.09L187.89 156ZM309.466 -6.19888e-06C321.466 -6.19888e-06 332.666 2.06666 343.066 6.2C353.466 10.3333 362.466 16 370.066 23.2C377.8 30.4 383.866 38.8667 388.266 48.6C392.666 58.3333 394.866 68.8667 394.866 80.2C394.866 91 392.6 101.133 388.066 110.6C383.666 120.067 377.6 128.333 369.866 135.4C362.266 142.333 353.266 147.867 342.866 152C332.466 156 321.333 158 309.466 158C297.6 158 286.466 156 276.066 152C265.666 147.867 256.6 142.333 248.866 135.4C241.133 128.333 235.066 120.067 230.666 110.6C226.266 101.133 224.066 91 224.066 80.2C224.066 68.8667 226.266 58.3333 230.666 48.6C235.066 38.8667 241.066 30.4 248.666 23.2C256.4 16 265.466 10.3333 275.866 6.2C286.266 2.06666 297.466 -6.19888e-06 309.466 -6.19888e-06ZM309.466 145C317.2 145 324.2 143.533 330.466 140.6C336.733 137.533 342.066 133.267 346.466 127.8C350.866 122.2 354.2 115.467 356.466 107.6C358.866 99.6 360.066 90.6667 360.066 80.8C360.066 70.4 358.866 61.0667 356.466 52.8C354.2 44.4 350.866 37.2667 346.466 31.4C342.066 25.4 336.733 20.8667 330.466 17.8C324.2 14.6 317.2 13 309.466 13C301.6 13 294.533 14.6 288.266 17.8C282.133 20.8667 276.866 25.4 272.466 31.4C268.066 37.2667 264.666 44.4 262.266 52.8C260 61.0667 258.866 70.4 258.866 80.8C258.866 90.6667 260 99.6 262.266 107.6C264.666 115.467 268.066 122.2 272.466 127.8C276.866 133.267 282.133 137.533 288.266 140.6C294.533 143.533 301.6 145 309.466 145ZM574.576 94C574.576 105.333 573.309 115.067 570.776 123.2C568.376 131.2 564.576 137.8 559.376 143C554.176 148.2 547.442 152 539.176 154.4C531.042 156.8 521.242 158 509.776 158C488.309 158 472.576 153.533 462.576 144.6C452.709 135.533 447.776 121.133 447.776 101.4V46.6C447.776 41.4 447.709 37.0667 447.576 33.6C447.442 30 447.242 27 446.976 24.6C446.709 22.2 446.309 20.2667 445.776 18.8C445.376 17.2 444.842 15.8667 444.176 14.8C442.976 12.9333 441.242 11.6667 438.976 11C436.709 10.3333 433.242 10 428.576 10V1.99999H500.376V10C494.776 10 490.642 10.3333 487.976 11C485.309 11.5333 483.242 12.6667 481.776 14.4C480.842 15.4667 480.042 16.8 479.376 18.4C478.842 19.8667 478.376 21.8667 477.976 24.4C477.709 26.8 477.509 29.8 477.376 33.4C477.242 37 477.176 41.4 477.176 46.6V99C477.176 114.2 480.376 125.467 486.776 132.8C493.309 140 503.309 143.6 516.776 143.6C544.242 143.6 557.976 128.333 557.976 97.8V51.6C557.976 46 557.842 41.2 557.576 37.2C557.442 33.2 557.109 29.8 556.576 27C556.176 24.2 555.576 21.8667 554.776 20C554.109 18.1333 553.242 16.6 552.176 15.4C550.309 13.5333 547.909 12.2 544.976 11.4C542.042 10.4667 537.976 10 532.776 10V1.99999H597.576V10C592.642 10 588.842 10.4 586.176 11.2C583.509 11.8667 581.442 13.1333 579.976 15C578.909 16.2 578.042 17.8 577.376 19.8C576.709 21.6667 576.176 24.0667 575.776 27C575.376 29.8 575.042 33.2 574.776 37.2C574.642 41.2 574.576 46 574.576 51.6V94ZM707.752 121.6L733.752 55C736.286 48.4667 738.286 43.1333 739.752 39C741.352 34.8667 742.552 31.4667 743.352 28.8C744.152 26.1333 744.686 24 744.952 22.4C745.219 20.8 745.352 19.2667 745.352 17.8C745.352 14.6 744.152 12.5333 741.752 11.6C739.352 10.5333 734.552 10 727.352 10V1.99999H784.152V10C773.086 10 765.419 15.4 761.152 26.2L708.552 158H693.752L645.952 41.2C643.286 34.9333 640.886 29.8 638.752 25.8C636.619 21.8 634.352 18.6667 631.952 16.4C629.552 14 626.886 12.4 623.952 11.6C621.152 10.6667 617.819 10.2 613.952 10.2V1.99999H689.552V10.2C686.086 10.3333 683.152 10.5333 680.752 10.8C678.486 11.0667 676.686 11.5333 675.352 12.2C674.019 12.7333 673.086 13.5333 672.552 14.6C672.019 15.5333 671.752 16.7333 671.752 18.2C671.752 20.0667 672.086 22.2667 672.752 24.8C673.419 27.3333 674.419 30.4 675.752 34L707.752 121.6ZM941.09 40.6C941.09 51.6667 937.89 60.9333 931.49 68.4C925.09 75.8667 914.89 80.8667 900.89 83.4L947.29 136.6C950.49 140.333 954.29 143.2 958.69 145.2C963.09 147.067 967.557 148 972.09 148V156H924.69L875.09 95.2C871.757 91.2 868.823 88.5333 866.29 87.2C863.89 85.7333 861.623 85 859.49 85V124.2C859.49 129.133 859.823 133.2 860.49 136.4C861.157 139.467 862.49 141.867 864.49 143.6C866.49 145.333 869.357 146.533 873.09 147.2C876.957 147.733 882.09 148 888.49 148V156H809.09V148C813.49 148 817.023 147.733 819.69 147.2C822.49 146.533 824.623 145.4 826.09 143.8C827.69 142.067 828.757 139.733 829.29 136.8C829.823 133.733 830.09 129.867 830.09 125.2V32.8C830.09 28.1333 829.89 24.4 829.49 21.6C829.09 18.6667 828.223 16.4 826.89 14.8C825.557 13.0667 823.623 11.9333 821.09 11.4C818.69 10.7333 815.423 10.2667 811.29 10V1.99999H880.49C899.823 1.99999 914.757 5.39999 925.29 12.2C935.823 19 941.09 28.4667 941.09 40.6ZM859.49 73H872.49C885.023 73 894.357 70.6 900.49 65.8C906.757 60.8667 909.89 52.8 909.89 41.6C909.89 33.0667 907.29 26.2 902.09 21C896.89 15.8 889.69 13.2 880.49 13.2H863.09C860.69 13.2 859.49 14.3333 859.49 16.6V73ZM1043.58 70.8C1052.11 70.8 1058.98 70.5333 1064.18 70C1069.38 69.4667 1073.38 68.4 1076.18 66.8C1079.11 65.0667 1081.18 62.6 1082.38 59.4C1083.58 56.2 1084.51 51.8667 1085.18 46.4H1092.58V105H1085.18C1084.38 99.6667 1083.31 95.4 1081.98 92.2C1080.64 89 1078.51 86.6 1075.58 85C1072.64 83.2667 1068.64 82.2 1063.58 81.8C1058.64 81.2667 1051.98 81 1043.58 81V122.2C1043.58 126.467 1044.11 130.067 1045.18 133C1046.38 135.933 1048.31 138.333 1050.98 140.2C1053.64 141.933 1057.18 143.2 1061.58 144C1065.98 144.667 1071.38 145 1077.78 145C1085.38 145 1091.78 144.467 1096.98 143.4C1102.31 142.333 1106.71 140.467 1110.18 137.8C1113.64 135.133 1116.44 131.6 1118.58 127.2C1120.71 122.667 1122.51 117 1123.98 110.2H1131.98L1128.78 156H993.176V148C997.576 147.867 1001.18 147.467 1003.98 146.8C1006.78 146.133 1008.91 145 1010.38 143.4C1011.84 141.8 1012.84 139.533 1013.38 136.6C1013.91 133.667 1014.18 129.867 1014.18 125.2V32.8C1014.18 28.1333 1013.91 24.4 1013.38 21.6C1012.98 18.6667 1012.11 16.4 1010.78 14.8C1009.44 13.0667 1007.51 11.9333 1004.98 11.4C1002.58 10.7333 999.376 10.2667 995.376 10V1.99999H1121.78L1123.18 41.2H1114.58C1113.78 35.6 1112.51 31 1110.78 27.4C1109.04 23.6667 1106.64 20.7333 1103.58 18.6C1100.51 16.3333 1096.51 14.8 1091.58 14C1086.78 13.0667 1080.84 12.6 1073.78 12.6H1051.18C1047.71 12.6 1045.58 13.0667 1044.78 14C1043.98 14.8 1043.58 16.8 1043.58 20V70.8ZM107.148 243.365H104.483C104.353 241.502 104.049 239.942 103.573 238.685C103.096 237.428 102.403 236.453 101.493 235.76C100.626 235.023 99.521 234.503 98.1776 234.2C96.8343 233.897 95.231 233.745 93.3676 233.745C91.7643 233.745 90.4643 233.788 89.4676 233.875C88.5143 233.918 87.7776 234.027 87.2576 234.2C86.7376 234.373 86.391 234.59 86.2176 234.85C86.0876 235.067 86.0226 235.37 86.0226 235.76V270.535C86.0226 271.922 86.1093 273.113 86.2826 274.11C86.4993 275.107 86.8893 275.93 87.4526 276.58C88.0593 277.187 88.9043 277.663 89.9876 278.01C91.1143 278.313 92.5876 278.487 94.4076 278.53V281H69.8376V278.53C71.6576 278.487 73.131 278.313 74.2576 278.01C75.3843 277.663 76.2293 277.187 76.7926 276.58C77.3993 275.93 77.7893 275.107 77.9626 274.11C78.1793 273.113 78.2876 271.922 78.2876 270.535V235.76C78.2876 235.37 78.201 235.067 78.0276 234.85C77.8976 234.59 77.5943 234.373 77.1176 234.2C76.6843 234.027 76.056 233.918 75.2326 233.875C74.4093 233.788 73.3043 233.745 71.9176 233.745C70.2276 233.745 68.646 233.81 67.1726 233.94C65.7426 234.07 64.486 234.46 63.4026 235.11C62.3626 235.717 61.5176 236.67 60.8676 237.97C60.2176 239.27 59.871 241.068 59.8276 243.365H57.4226V230.95H106.498L107.148 243.365ZM139.63 270.665C139.63 272.442 139.674 273.85 139.76 274.89C139.847 275.93 140.064 276.732 140.41 277.295C140.8 277.815 141.342 278.162 142.035 278.335C142.729 278.508 143.704 278.638 144.96 278.725V281H127.67V278.725C128.927 278.638 129.924 278.508 130.66 278.335C131.397 278.162 131.96 277.815 132.35 277.295C132.74 276.775 132.979 276.038 133.065 275.085C133.195 274.088 133.26 272.767 133.26 271.12V243.885C133.26 241.328 133.217 239.292 133.13 237.775C133.087 236.258 132.979 235.11 132.805 234.33C132.719 233.81 132.567 233.398 132.35 233.095C132.177 232.748 131.895 232.488 131.505 232.315C131.115 232.098 130.595 231.947 129.945 231.86C129.295 231.773 128.494 231.73 127.54 231.73V229.52L139.5 227.05V251.815H139.76C140.41 250.948 141.212 250.168 142.165 249.475C143.162 248.738 144.224 248.11 145.35 247.59C146.477 247.07 147.647 246.658 148.86 246.355C150.117 246.052 151.33 245.9 152.5 245.9C154.494 245.9 156.314 246.247 157.96 246.94C159.65 247.633 160.95 248.565 161.86 249.735C162.597 250.732 163.139 252.053 163.485 253.7C163.832 255.303 164.005 257.492 164.005 260.265V270.665C164.005 272.442 164.049 273.85 164.135 274.89C164.222 275.887 164.439 276.667 164.785 277.23C165.175 277.793 165.717 278.162 166.41 278.335C167.104 278.508 168.079 278.638 169.335 278.725V281H152.11V278.725C153.324 278.682 154.299 278.573 155.035 278.4C155.772 278.183 156.314 277.815 156.66 277.295C157.05 276.775 157.289 276.038 157.375 275.085C157.505 274.088 157.57 272.767 157.57 271.12V262.93C157.57 258.077 157.007 254.632 155.88 252.595C154.754 250.515 152.869 249.475 150.225 249.475C148.189 249.475 146.325 249.995 144.635 251.035C142.989 252.075 141.689 253.505 140.735 255.325C140.519 255.802 140.324 256.257 140.15 256.69C140.02 257.08 139.912 257.535 139.825 258.055C139.739 258.575 139.674 259.182 139.63 259.875C139.63 260.525 139.63 261.348 139.63 262.345V270.665ZM222.666 274.955C218.983 279.418 214.411 281.65 208.951 281.65C206.395 281.65 204.076 281.238 201.996 280.415C199.916 279.548 198.118 278.357 196.601 276.84C195.128 275.28 193.98 273.438 193.156 271.315C192.333 269.148 191.921 266.765 191.921 264.165C191.921 261.522 192.355 259.073 193.221 256.82C194.088 254.567 195.301 252.638 196.861 251.035C198.465 249.432 200.35 248.175 202.516 247.265C204.726 246.355 207.131 245.9 209.731 245.9C213.935 245.9 217.185 247.048 219.481 249.345C221.778 251.598 222.926 254.848 222.926 259.095C222.926 259.702 222.796 260.07 222.536 260.2C222.32 260.33 221.778 260.395 220.911 260.395H199.526C199.44 260.742 199.375 261.175 199.331 261.695C199.288 262.172 199.266 262.713 199.266 263.32C199.266 265.573 199.526 267.632 200.046 269.495C200.61 271.315 201.39 272.875 202.386 274.175C203.426 275.475 204.64 276.493 206.026 277.23C207.456 277.923 209.038 278.27 210.771 278.27C212.591 278.27 214.281 277.88 215.841 277.1C217.401 276.277 219.005 274.955 220.651 273.135L222.666 274.955ZM211.941 257.405C212.808 257.405 213.501 257.383 214.021 257.34C214.541 257.297 214.931 257.21 215.191 257.08C215.451 256.95 215.625 256.777 215.711 256.56C215.798 256.3 215.841 255.975 215.841 255.585C215.841 253.592 215.191 252.01 213.891 250.84C212.635 249.627 210.901 249.02 208.691 249.02C204.011 249.02 201.108 251.815 199.981 257.405H211.941ZM325.519 281.65L294.644 240.96H294.384V268.715C294.384 270.882 294.449 272.593 294.579 273.85C294.753 275.107 295.056 276.082 295.489 276.775C295.966 277.468 296.616 277.923 297.439 278.14C298.306 278.357 299.433 278.487 300.819 278.53V281H283.334V278.53C284.851 278.487 286.064 278.357 286.974 278.14C287.928 277.88 288.664 277.425 289.184 276.775C289.704 276.125 290.051 275.215 290.224 274.045C290.398 272.832 290.484 271.207 290.484 269.17V242.78C290.484 240.96 290.398 239.465 290.224 238.295C290.094 237.082 289.791 236.128 289.314 235.435C288.881 234.742 288.231 234.265 287.364 234.005C286.498 233.702 285.371 233.507 283.984 233.42V230.95H296.854L325.259 268.845H325.519V243.235C325.519 241.112 325.433 239.422 325.259 238.165C325.129 236.865 324.826 235.868 324.349 235.175C323.916 234.482 323.266 234.027 322.399 233.81C321.576 233.593 320.471 233.463 319.084 233.42V230.95H336.569V233.42C335.053 233.463 333.818 233.615 332.864 233.875C331.954 234.092 331.239 234.525 330.719 235.175C330.199 235.825 329.853 236.757 329.679 237.97C329.506 239.183 329.419 240.787 329.419 242.78V281.65H325.519ZM377.209 261.76C374.739 262.713 372.638 263.645 370.904 264.555C369.214 265.465 367.849 266.375 366.809 267.285C365.769 268.195 365.011 269.105 364.534 270.015C364.101 270.925 363.884 271.857 363.884 272.81C363.884 274.24 364.361 275.41 365.314 276.32C366.268 277.23 367.524 277.685 369.084 277.685C370.211 277.685 371.251 277.403 372.204 276.84C373.201 276.277 374.068 275.518 374.804 274.565C375.541 273.568 376.126 272.42 376.559 271.12C376.993 269.777 377.209 268.368 377.209 266.895V261.76ZM377.209 258.965V256.3C377.209 251.013 374.956 248.37 370.449 248.37C369.713 248.37 369.084 248.435 368.564 248.565C368.044 248.695 367.611 248.912 367.264 249.215C366.918 249.518 366.593 249.952 366.289 250.515C366.029 251.078 365.769 251.772 365.509 252.595C365.033 253.852 364.556 254.697 364.079 255.13C363.646 255.52 362.996 255.715 362.129 255.715C359.963 255.715 358.879 254.632 358.879 252.465C358.879 250.385 359.984 248.782 362.194 247.655C364.404 246.485 367.546 245.9 371.619 245.9C375.953 245.9 379.029 246.68 380.849 248.24C382.669 249.757 383.579 252.357 383.579 256.04V270.6C383.579 275.54 384.554 278.01 386.504 278.01C387.111 278.01 387.696 277.945 388.259 277.815C388.823 277.642 389.299 277.23 389.689 276.58L390.599 278.14C390.079 279.137 389.126 279.982 387.739 280.675C386.353 281.325 384.901 281.65 383.384 281.65C381.478 281.65 380.048 281.043 379.094 279.83C378.184 278.617 377.729 276.905 377.729 274.695H377.404C376.278 276.818 374.718 278.508 372.724 279.765C370.731 280.978 368.521 281.585 366.094 281.585C363.364 281.585 361.219 280.892 359.659 279.505C358.099 278.118 357.319 276.255 357.319 273.915C357.319 272.875 357.493 271.878 357.839 270.925C358.229 269.972 358.836 269.062 359.659 268.195C360.483 267.328 361.566 266.483 362.909 265.66C364.253 264.793 365.899 263.927 367.849 263.06L377.209 258.965ZM410.991 250.645V248.24C413.287 246.897 415.086 245.553 416.386 244.21C417.686 242.867 418.682 241.263 419.376 239.4H421.261V247.59H429.971V250.645H421.261V270.405C421.261 271.922 421.326 273.2 421.456 274.24C421.629 275.28 421.889 276.125 422.236 276.775C422.582 277.382 423.037 277.815 423.601 278.075C424.164 278.335 424.879 278.465 425.746 278.465C426.829 278.465 427.739 278.248 428.476 277.815C429.256 277.338 430.014 276.558 430.751 275.475L432.376 276.71C431.769 278.313 430.707 279.548 429.191 280.415C427.717 281.238 425.876 281.65 423.666 281.65C420.806 281.65 418.617 280.978 417.101 279.635C415.627 278.248 414.891 276.277 414.891 273.72V250.645H410.991ZM465.651 270.665C465.651 272.355 465.716 273.72 465.846 274.76C466.019 275.757 466.323 276.558 466.756 277.165C467.189 277.728 467.796 278.118 468.576 278.335C469.356 278.552 470.396 278.682 471.696 278.725V281H453.041V278.725C454.341 278.682 455.403 278.552 456.226 278.335C457.049 278.075 457.678 277.685 458.111 277.165C458.588 276.602 458.891 275.843 459.021 274.89C459.194 273.893 459.281 272.637 459.281 271.12V262.8C459.281 260.287 459.238 258.228 459.151 256.625C459.108 254.978 458.999 253.852 458.826 253.245C458.609 252.248 458.111 251.577 457.331 251.23C456.551 250.84 455.078 250.645 452.911 250.645V248.37L465.651 245.9V270.665ZM458.176 232.705C458.176 231.578 458.566 230.625 459.346 229.845C460.126 229.065 461.079 228.675 462.206 228.675C463.333 228.675 464.286 229.065 465.066 229.845C465.846 230.625 466.236 231.578 466.236 232.705C466.236 233.832 465.846 234.785 465.066 235.565C464.286 236.345 463.333 236.735 462.206 236.735C461.079 236.735 460.126 236.345 459.346 235.565C458.566 234.785 458.176 233.832 458.176 232.705ZM511.984 245.9C514.454 245.9 516.794 246.355 519.004 247.265C521.214 248.132 523.143 249.345 524.789 250.905C526.479 252.465 527.801 254.328 528.754 256.495C529.751 258.618 530.249 260.958 530.249 263.515C530.249 266.158 529.751 268.585 528.754 270.795C527.801 273.005 526.479 274.912 524.789 276.515C523.143 278.118 521.214 279.375 519.004 280.285C516.794 281.195 514.454 281.65 511.984 281.65C509.558 281.65 507.239 281.217 505.029 280.35C502.863 279.44 500.956 278.183 499.309 276.58C497.663 274.977 496.363 273.07 495.409 270.86C494.456 268.607 493.979 266.158 493.979 263.515C493.979 260.958 494.456 258.597 495.409 256.43C496.363 254.263 497.663 252.4 499.309 250.84C500.956 249.28 502.863 248.067 505.029 247.2C507.239 246.333 509.558 245.9 511.984 245.9ZM511.984 249.02C510.381 249.02 508.908 249.367 507.564 250.06C506.264 250.753 505.138 251.75 504.184 253.05C503.274 254.307 502.559 255.845 502.039 257.665C501.563 259.442 501.324 261.413 501.324 263.58C501.324 265.833 501.563 267.87 502.039 269.69C502.559 271.51 503.274 273.07 504.184 274.37C505.138 275.627 506.264 276.602 507.564 277.295C508.864 277.988 510.338 278.335 511.984 278.335C513.631 278.335 515.126 277.988 516.469 277.295C517.813 276.602 518.961 275.605 519.914 274.305C520.868 273.005 521.604 271.445 522.124 269.625C522.644 267.805 522.904 265.79 522.904 263.58C522.904 261.413 522.644 259.442 522.124 257.665C521.604 255.888 520.868 254.372 519.914 253.115C518.961 251.815 517.813 250.818 516.469 250.125C515.126 249.388 513.631 249.02 511.984 249.02ZM565.304 270.795C565.304 272.572 565.347 273.98 565.434 275.02C565.52 276.017 565.737 276.797 566.084 277.36C566.474 277.88 567.015 278.227 567.709 278.4C568.445 278.573 569.442 278.703 570.699 278.79V281H553.669V278.79C554.882 278.703 555.835 278.573 556.529 278.4C557.265 278.227 557.829 277.88 558.219 277.36C558.609 276.84 558.847 276.103 558.934 275.15C559.064 274.197 559.129 272.897 559.129 271.25V262.605C559.129 257.448 558.999 254.307 558.739 253.18C558.609 252.617 558.435 252.162 558.219 251.815C558.045 251.425 557.764 251.143 557.374 250.97C556.984 250.753 556.485 250.623 555.879 250.58C555.272 250.493 554.492 250.45 553.539 250.45V248.37L563.939 245.9L564.719 252.335H564.979C566.625 250.298 568.554 248.717 570.764 247.59C572.974 246.463 575.379 245.9 577.979 245.9C579.972 245.9 581.792 246.225 583.439 246.875C585.085 247.525 586.342 248.413 587.209 249.54C587.945 250.537 588.465 251.837 588.769 253.44C589.072 255 589.224 257.167 589.224 259.94V270.795C589.224 272.572 589.267 273.98 589.354 275.02C589.484 276.017 589.722 276.797 590.069 277.36C590.415 277.88 590.935 278.227 591.629 278.4C592.365 278.573 593.319 278.703 594.489 278.79V281H577.654V278.79C578.867 278.747 579.82 278.638 580.514 278.465C581.25 278.248 581.792 277.88 582.139 277.36C582.529 276.84 582.767 276.103 582.854 275.15C582.984 274.153 583.049 272.853 583.049 271.25V262.67C583.049 260.2 582.919 258.12 582.659 256.43C582.399 254.74 581.965 253.375 581.359 252.335C580.795 251.295 580.037 250.558 579.084 250.125C578.13 249.648 576.982 249.41 575.639 249.41C573.689 249.41 571.89 249.93 570.244 250.97C568.64 251.967 567.384 253.353 566.474 255.13C566.257 255.563 566.062 255.975 565.889 256.365C565.759 256.755 565.65 257.21 565.564 257.73C565.477 258.25 565.412 258.857 565.369 259.55C565.325 260.2 565.304 261.045 565.304 262.085V270.795ZM636.638 261.76C634.168 262.713 632.066 263.645 630.333 264.555C628.643 265.465 627.278 266.375 626.238 267.285C625.198 268.195 624.44 269.105 623.963 270.015C623.53 270.925 623.313 271.857 623.313 272.81C623.313 274.24 623.79 275.41 624.743 276.32C625.696 277.23 626.953 277.685 628.513 277.685C629.64 277.685 630.68 277.403 631.633 276.84C632.63 276.277 633.496 275.518 634.233 274.565C634.97 273.568 635.555 272.42 635.988 271.12C636.421 269.777 636.638 268.368 636.638 266.895V261.76ZM636.638 258.965V256.3C636.638 251.013 634.385 248.37 629.878 248.37C629.141 248.37 628.513 248.435 627.993 248.565C627.473 248.695 627.04 248.912 626.693 249.215C626.346 249.518 626.021 249.952 625.718 250.515C625.458 251.078 625.198 251.772 624.938 252.595C624.461 253.852 623.985 254.697 623.508 255.13C623.075 255.52 622.425 255.715 621.558 255.715C619.391 255.715 618.308 254.632 618.308 252.465C618.308 250.385 619.413 248.782 621.623 247.655C623.833 246.485 626.975 245.9 631.048 245.9C635.381 245.9 638.458 246.68 640.278 248.24C642.098 249.757 643.008 252.357 643.008 256.04V270.6C643.008 275.54 643.983 278.01 645.933 278.01C646.54 278.01 647.125 277.945 647.688 277.815C648.251 277.642 648.728 277.23 649.118 276.58L650.028 278.14C649.508 279.137 648.555 279.982 647.168 280.675C645.781 281.325 644.33 281.65 642.813 281.65C640.906 281.65 639.476 281.043 638.523 279.83C637.613 278.617 637.158 276.905 637.158 274.695H636.833C635.706 276.818 634.146 278.508 632.153 279.765C630.16 280.978 627.95 281.585 625.523 281.585C622.793 281.585 620.648 280.892 619.088 279.505C617.528 278.118 616.748 276.255 616.748 273.915C616.748 272.875 616.921 271.878 617.268 270.925C617.658 269.972 618.265 269.062 619.088 268.195C619.911 267.328 620.995 266.483 622.338 265.66C623.681 264.793 625.328 263.927 627.278 263.06L636.638 258.965ZM681.404 270.86C681.404 272.507 681.469 273.828 681.599 274.825C681.729 275.822 681.989 276.602 682.379 277.165C682.813 277.728 683.398 278.118 684.134 278.335C684.914 278.552 685.933 278.682 687.189 278.725V281H669.249V278.725C670.549 278.682 671.589 278.552 672.369 278.335C673.149 278.075 673.756 277.685 674.189 277.165C674.666 276.645 674.969 275.93 675.099 275.02C675.273 274.067 675.359 272.832 675.359 271.315V243.3C675.359 240.96 675.316 239.01 675.229 237.45C675.186 235.847 675.099 234.763 674.969 234.2C674.753 233.203 674.233 232.532 673.409 232.185C672.629 231.838 671.199 231.665 669.119 231.665V229.455L681.404 227.05V270.86ZM779.119 269.365L796.019 230.95H810.579V233.42C809.192 233.463 808.066 233.637 807.199 233.94C806.376 234.243 805.726 234.763 805.249 235.5C804.816 236.193 804.512 237.168 804.339 238.425C804.209 239.682 804.144 241.285 804.144 243.235V268.715C804.144 270.882 804.231 272.593 804.404 273.85C804.577 275.107 804.902 276.082 805.379 276.775C805.899 277.468 806.614 277.923 807.524 278.14C808.477 278.357 809.712 278.487 811.229 278.53V281H790.169V278.53C791.686 278.487 792.899 278.357 793.809 278.14C794.762 277.88 795.499 277.425 796.019 276.775C796.539 276.125 796.886 275.215 797.059 274.045C797.232 272.832 797.319 271.207 797.319 269.17V239.01H796.669L777.689 281.65H776.259L757.604 239.01H757.344V268.715C757.344 270.882 757.431 272.593 757.604 273.85C757.777 275.107 758.102 276.082 758.579 276.775C759.099 277.468 759.814 277.923 760.724 278.14C761.677 278.357 762.912 278.487 764.429 278.53V281H746.294V278.53C747.811 278.487 749.024 278.357 749.934 278.14C750.887 277.88 751.624 277.425 752.144 276.775C752.664 276.125 753.011 275.215 753.184 274.045C753.357 272.832 753.444 271.207 753.444 269.17V242.78C753.444 240.96 753.357 239.465 753.184 238.295C753.054 237.082 752.751 236.128 752.274 235.435C751.841 234.742 751.191 234.265 750.324 234.005C749.457 233.702 748.331 233.507 746.944 233.42V230.95H762.479L778.859 269.365H779.119ZM860.909 256.95C860.909 255.173 860.866 253.787 860.779 252.79C860.693 251.75 860.454 250.97 860.064 250.45C859.718 249.887 859.176 249.518 858.439 249.345C857.746 249.128 856.771 248.955 855.514 248.825V246.55H867.279V266.505C867.279 268.975 867.301 270.99 867.344 272.55C867.431 274.11 867.539 275.28 867.669 276.06C867.756 276.623 867.886 277.078 868.059 277.425C868.276 277.728 868.579 277.988 868.969 278.205C869.359 278.378 869.858 278.508 870.464 278.595C871.114 278.638 871.938 278.66 872.934 278.66V280.935L862.209 281.715L861.494 273.915H861.234C859.588 276.602 857.681 278.573 855.514 279.83C853.391 281.043 851.159 281.65 848.819 281.65C846.999 281.65 845.223 281.303 843.489 280.61C841.799 279.917 840.521 278.985 839.654 277.815C838.918 276.862 838.376 275.54 838.029 273.85C837.726 272.16 837.574 269.972 837.574 267.285V256.95C837.574 255.173 837.531 253.787 837.444 252.79C837.358 251.75 837.119 250.97 836.729 250.45C836.383 249.887 835.841 249.518 835.104 249.345C834.411 249.128 833.436 248.955 832.179 248.825V246.55H843.944V264.295C843.944 269.018 844.486 272.442 845.569 274.565C846.696 276.688 848.473 277.75 850.899 277.75C854.713 277.75 857.681 275.258 859.804 270.275C860.021 269.755 860.194 269.278 860.324 268.845C860.454 268.412 860.563 267.935 860.649 267.415C860.736 266.895 860.801 266.31 860.844 265.66C860.888 265.01 860.909 264.23 860.909 263.32V256.95ZM897.824 281H896.394V269.82H898.019C899.709 275.93 902.786 278.985 907.249 278.985C908.983 278.985 910.348 278.573 911.344 277.75C912.384 276.883 912.904 275.583 912.904 273.85C912.904 273.2 912.796 272.658 912.579 272.225C912.406 271.748 912.038 271.272 911.474 270.795C910.954 270.275 910.196 269.69 909.199 269.04C908.246 268.39 906.968 267.567 905.364 266.57C903.891 265.66 902.613 264.815 901.529 264.035C900.446 263.255 899.536 262.475 898.799 261.695C898.063 260.872 897.499 260.005 897.109 259.095C896.763 258.185 896.589 257.123 896.589 255.91C896.589 254.437 896.828 253.093 897.304 251.88C897.824 250.623 898.518 249.562 899.384 248.695C900.251 247.828 901.269 247.157 902.439 246.68C903.609 246.16 904.888 245.9 906.274 245.9C907.444 245.9 908.658 246.095 909.914 246.485C911.171 246.832 912.276 247.308 913.229 247.915L914.529 246.55H915.764V255.91H914.074C913.121 253.267 912.081 251.382 910.954 250.255C909.828 249.128 908.441 248.565 906.794 248.565C905.321 248.565 904.129 248.955 903.219 249.735C902.353 250.515 901.919 251.598 901.919 252.985C901.919 253.722 902.028 254.372 902.244 254.935C902.504 255.455 902.894 255.975 903.414 256.495C903.934 257.015 904.584 257.557 905.364 258.12C906.188 258.64 907.163 259.247 908.289 259.94C910.153 261.11 911.734 262.15 913.034 263.06C914.378 263.97 915.461 264.88 916.284 265.79C917.108 266.657 917.714 267.567 918.104 268.52C918.494 269.473 918.689 270.557 918.689 271.77C918.689 274.847 917.693 277.273 915.699 279.05C913.706 280.783 911.084 281.65 907.834 281.65C904.454 281.65 901.551 280.675 899.124 278.725L897.824 281ZM973.556 274.955C969.873 279.418 965.301 281.65 959.841 281.65C957.284 281.65 954.966 281.238 952.886 280.415C950.806 279.548 949.008 278.357 947.491 276.84C946.018 275.28 944.869 273.438 944.046 271.315C943.223 269.148 942.811 266.765 942.811 264.165C942.811 261.522 943.244 259.073 944.111 256.82C944.978 254.567 946.191 252.638 947.751 251.035C949.354 249.432 951.239 248.175 953.406 247.265C955.616 246.355 958.021 245.9 960.621 245.9C964.824 245.9 968.074 247.048 970.371 249.345C972.668 251.598 973.816 254.848 973.816 259.095C973.816 259.702 973.686 260.07 973.426 260.2C973.209 260.33 972.668 260.395 971.801 260.395H950.416C950.329 260.742 950.264 261.175 950.221 261.695C950.178 262.172 950.156 262.713 950.156 263.32C950.156 265.573 950.416 267.632 950.936 269.495C951.499 271.315 952.279 272.875 953.276 274.175C954.316 275.475 955.529 276.493 956.916 277.23C958.346 277.923 959.928 278.27 961.661 278.27C963.481 278.27 965.171 277.88 966.731 277.1C968.291 276.277 969.894 274.955 971.541 273.135L973.556 274.955ZM962.831 257.405C963.698 257.405 964.391 257.383 964.911 257.34C965.431 257.297 965.821 257.21 966.081 257.08C966.341 256.95 966.514 256.777 966.601 256.56C966.688 256.3 966.731 255.975 966.731 255.585C966.731 253.592 966.081 252.01 964.781 250.84C963.524 249.627 961.791 249.02 959.581 249.02C954.901 249.02 951.998 251.815 950.871 257.405H962.831ZM1024.86 256.95C1024.86 255.173 1024.81 253.787 1024.73 252.79C1024.64 251.75 1024.4 250.97 1024.01 250.45C1023.67 249.887 1023.12 249.518 1022.39 249.345C1021.69 249.128 1020.72 248.955 1019.46 248.825V246.55H1031.23V266.505C1031.23 268.975 1031.25 270.99 1031.29 272.55C1031.38 274.11 1031.49 275.28 1031.62 276.06C1031.7 276.623 1031.83 277.078 1032.01 277.425C1032.22 277.728 1032.53 277.988 1032.92 278.205C1033.31 278.378 1033.81 278.508 1034.41 278.595C1035.06 278.638 1035.89 278.66 1036.88 278.66V280.935L1026.16 281.715L1025.44 273.915H1025.18C1023.54 276.602 1021.63 278.573 1019.46 279.83C1017.34 281.043 1015.11 281.65 1012.77 281.65C1010.95 281.65 1009.17 281.303 1007.44 280.61C1005.75 279.917 1004.47 278.985 1003.6 277.815C1002.87 276.862 1002.32 275.54 1001.98 273.85C1001.67 272.16 1001.52 269.972 1001.52 267.285V256.95C1001.52 255.173 1001.48 253.787 1001.39 252.79C1001.31 251.75 1001.07 250.97 1000.68 250.45C1000.33 249.887 999.788 249.518 999.052 249.345C998.358 249.128 997.383 248.955 996.127 248.825V246.55H1007.89V264.295C1007.89 269.018 1008.43 272.442 1009.52 274.565C1010.64 276.688 1012.42 277.75 1014.85 277.75C1018.66 277.75 1021.63 275.258 1023.75 270.275C1023.97 269.755 1024.14 269.278 1024.27 268.845C1024.4 268.412 1024.51 267.935 1024.6 267.415C1024.68 266.895 1024.75 266.31 1024.79 265.66C1024.84 265.01 1024.86 264.23 1024.86 263.32V256.95ZM1070.55 270.6C1070.55 272.42 1070.59 273.85 1070.68 274.89C1070.76 275.93 1070.98 276.732 1071.33 277.295C1071.72 277.815 1072.26 278.162 1072.95 278.335C1073.64 278.508 1074.62 278.638 1075.88 278.725V281H1058.59V278.725C1059.84 278.638 1060.84 278.508 1061.58 278.335C1062.31 278.162 1062.88 277.815 1063.27 277.295C1063.66 276.775 1063.89 276.038 1063.98 275.085C1064.11 274.088 1064.18 272.767 1064.18 271.12V262.8C1064.18 260.33 1064.13 258.272 1064.05 256.625C1064 254.978 1063.89 253.852 1063.72 253.245C1063.59 252.682 1063.44 252.248 1063.27 251.945C1063.09 251.598 1062.81 251.338 1062.42 251.165C1062.03 250.948 1061.51 250.818 1060.86 250.775C1060.25 250.688 1059.45 250.645 1058.46 250.645V248.37L1069.05 245.9L1069.9 252.4H1070.22C1072.17 250.19 1074.21 248.565 1076.33 247.525C1078.5 246.442 1080.88 245.9 1083.48 245.9C1086.21 245.9 1088.51 246.463 1090.37 247.59C1092.23 248.673 1093.53 250.255 1094.27 252.335H1094.53C1096.13 250.298 1098.08 248.717 1100.38 247.59C1102.68 246.463 1105.13 245.9 1107.73 245.9C1109.76 245.9 1111.6 246.247 1113.25 246.94C1114.94 247.59 1116.22 248.5 1117.09 249.67C1117.87 250.667 1118.41 251.988 1118.71 253.635C1119.06 255.238 1119.23 257.448 1119.23 260.265V270.6C1119.23 272.377 1119.27 273.785 1119.36 274.825C1119.49 275.865 1119.73 276.667 1120.08 277.23C1120.42 277.793 1120.94 278.162 1121.64 278.335C1122.37 278.508 1123.37 278.638 1124.63 278.725V281H1107.34V278.725C1108.55 278.682 1109.52 278.573 1110.26 278.4C1111 278.183 1111.56 277.815 1111.95 277.295C1112.34 276.732 1112.58 275.973 1112.67 275.02C1112.8 274.067 1112.86 272.767 1112.86 271.12V262.93C1112.86 260.46 1112.73 258.38 1112.47 256.69C1112.21 254.957 1111.78 253.57 1111.17 252.53C1110.56 251.447 1109.76 250.667 1108.77 250.19C1107.81 249.713 1106.64 249.475 1105.26 249.475C1103.35 249.475 1101.55 250.017 1099.86 251.1C1098.21 252.14 1096.91 253.548 1095.96 255.325C1095.74 255.758 1095.55 256.192 1095.38 256.625C1095.25 257.015 1095.14 257.47 1095.05 257.99C1094.96 258.467 1094.9 259.052 1094.86 259.745C1094.86 260.438 1094.86 261.305 1094.86 262.345V270.6C1094.86 272.377 1094.9 273.785 1094.99 274.825C1095.07 275.865 1095.29 276.667 1095.64 277.23C1096.03 277.793 1096.59 278.162 1097.33 278.335C1098.06 278.508 1099.06 278.638 1100.32 278.725V281H1083.03V278.725C1084.24 278.638 1085.21 278.508 1085.95 278.335C1086.69 278.162 1087.23 277.815 1087.58 277.295C1087.97 276.775 1088.2 276.038 1088.29 275.085C1088.42 274.088 1088.49 272.767 1088.49 271.12V262.93C1088.49 260.417 1088.36 258.315 1088.1 256.625C1087.84 254.892 1087.4 253.505 1086.8 252.465C1086.23 251.382 1085.47 250.623 1084.52 250.19C1083.57 249.713 1082.4 249.475 1081.01 249.475C1079.06 249.475 1077.22 250.017 1075.49 251.1C1073.8 252.14 1072.52 253.548 1071.65 255.325C1071.43 255.758 1071.24 256.192 1071.07 256.625C1070.94 257.015 1070.83 257.47 1070.74 257.99C1070.65 258.467 1070.59 259.052 1070.55 259.745C1070.55 260.438 1070.55 261.305 1070.55 262.345V270.6ZM20.6141 330.23C22.6941 328.627 24.2107 327.002 25.1641 325.355C26.1174 323.665 26.5941 321.845 26.5941 319.895C26.5941 317.858 26.1391 316.255 25.2291 315.085C24.3191 313.872 23.1057 313.265 21.5891 313.265C18.7291 313.265 17.2991 315.453 17.2991 319.83C17.2991 321.737 17.5807 323.578 18.1441 325.355C18.7074 327.088 19.5307 328.713 20.6141 330.23ZM16.9091 336.34C14.1791 337.9 12.0557 339.742 10.5391 341.865C9.02242 343.945 8.26408 346.112 8.26408 348.365C8.26408 350.748 9.02242 352.72 10.5391 354.28C12.0991 355.797 14.0924 356.555 16.5191 356.555C18.3391 356.555 20.2891 356.1 22.3691 355.19C24.4491 354.28 26.4208 353.002 28.2841 351.355L16.9091 336.34ZM32.9641 346.415C34.0041 345.115 34.9574 343.858 35.8241 342.645C36.7341 341.388 37.5141 340.218 38.1641 339.135C38.8141 338.008 39.3124 336.99 39.6591 336.08C40.0057 335.17 40.1791 334.433 40.1791 333.87C40.1791 333.177 39.8541 332.678 39.2041 332.375C38.5974 332.072 37.6007 331.92 36.2141 331.92V329.645H51.1641V331.92C50.2108 331.92 49.3874 331.985 48.6941 332.115C48.0441 332.202 47.4591 332.375 46.9391 332.635C46.4191 332.895 45.9207 333.242 45.4441 333.675C45.0108 334.108 44.5774 334.672 44.1441 335.365L34.9141 348.885C36.7341 351.355 38.6191 353.24 40.5691 354.54C42.5624 355.797 44.5341 356.425 46.4841 356.425C47.0474 356.425 47.5457 356.382 47.9791 356.295C48.4124 356.165 48.8024 355.97 49.1491 355.71C49.5391 355.407 49.8858 355.017 50.1891 354.54C50.5358 354.063 50.8824 353.457 51.2291 352.72L52.8541 353.175C52.3774 355.602 51.3158 357.465 49.6691 358.765C48.0224 360.022 45.8774 360.65 43.2341 360.65C42.1508 360.65 41.1107 360.52 40.1141 360.26C39.1607 360.043 38.1857 359.653 37.1891 359.09C36.1924 358.527 35.1308 357.79 34.0041 356.88C32.8774 355.97 31.6424 354.843 30.2991 353.5C28.1324 355.753 25.6191 357.508 22.7591 358.765C19.9424 360.022 17.0608 360.65 14.1141 360.65C12.1207 360.65 10.2791 360.368 8.58908 359.805C6.94242 359.198 5.51242 358.397 4.29908 357.4C3.08575 356.36 2.13242 355.147 1.43908 353.76C0.745749 352.33 0.399082 350.792 0.399082 349.145C0.399082 346.198 1.56908 343.49 3.90908 341.02C6.24908 338.507 9.99742 335.993 15.1541 333.48C13.7674 331.443 12.7491 329.537 12.0991 327.76C11.4924 325.983 11.1891 324.12 11.1891 322.17C11.1891 320.263 11.4491 318.53 11.9691 316.97C12.5324 315.367 13.3124 314.002 14.3091 312.875C15.3057 311.748 16.4974 310.882 17.8841 310.275C19.2707 309.625 20.8091 309.3 22.4991 309.3C23.9724 309.3 25.3158 309.538 26.5291 310.015C27.7857 310.492 28.8691 311.163 29.7791 312.03C30.6891 312.897 31.3824 313.915 31.8591 315.085C32.3791 316.255 32.6391 317.555 32.6391 318.985C32.6391 321.412 31.8374 323.687 30.2341 325.81C28.6741 327.933 26.0741 330.23 22.4341 332.7L32.9641 346.415ZM138.654 341.865H121.299C120.562 343.642 119.934 345.223 119.414 346.61C118.894 347.953 118.461 349.123 118.114 350.12C117.811 351.117 117.594 351.962 117.464 352.655C117.334 353.348 117.269 353.912 117.269 354.345C117.269 355.558 117.659 356.403 118.439 356.88C119.219 357.313 120.519 357.53 122.339 357.53V360H106.544V357.53C107.541 357.4 108.386 357.227 109.079 357.01C109.816 356.793 110.444 356.49 110.964 356.1C111.527 355.71 112.004 355.212 112.394 354.605C112.827 353.955 113.239 353.175 113.629 352.265L130.529 309.95H133.324L148.079 346.61C149.076 349.037 149.942 350.987 150.679 352.46C151.416 353.89 152.131 354.973 152.824 355.71C153.517 356.447 154.254 356.923 155.034 357.14C155.857 357.357 156.832 357.465 157.959 357.465V360H136.769V357.465C139.066 357.465 140.647 357.248 141.514 356.815C142.381 356.382 142.814 355.667 142.814 354.67C142.814 354.237 142.792 353.847 142.749 353.5C142.706 353.11 142.619 352.698 142.489 352.265C142.402 351.832 142.251 351.355 142.034 350.835C141.861 350.272 141.622 349.622 141.319 348.885L138.654 341.865ZM122.599 338.615H137.419L130.204 319.44L122.599 338.615ZM189.449 349.665C189.449 351.442 189.492 352.85 189.579 353.89C189.666 354.93 189.882 355.732 190.229 356.295C190.619 356.815 191.161 357.162 191.854 357.335C192.547 357.508 193.522 357.638 194.779 357.725V360H177.489V357.725C178.746 357.682 179.742 357.573 180.479 357.4C181.216 357.183 181.779 356.815 182.169 356.295C182.559 355.775 182.797 355.038 182.884 354.085C183.014 353.088 183.079 351.767 183.079 350.12V342.515C183.079 339.568 183.036 337.272 182.949 335.625C182.906 333.978 182.689 332.765 182.299 331.985C181.952 331.205 181.389 330.75 180.609 330.62C179.829 330.447 178.746 330.36 177.359 330.36V328.085L188.734 325.615L189.644 333.675H189.904C190.467 332.375 191.161 331.183 191.984 330.1C192.851 329.017 193.782 328.107 194.779 327.37C195.776 326.59 196.816 325.983 197.899 325.55C198.982 325.117 200.087 324.9 201.214 324.9C202.601 324.9 203.684 325.247 204.464 325.94C205.287 326.59 205.699 327.478 205.699 328.605C205.699 329.645 205.374 330.468 204.724 331.075C204.074 331.638 203.142 331.92 201.929 331.92C201.236 331.92 200.651 331.833 200.174 331.66C199.697 331.487 199.264 331.313 198.874 331.14C198.527 330.923 198.181 330.728 197.834 330.555C197.531 330.382 197.184 330.295 196.794 330.295C195.624 330.295 194.454 331.053 193.284 332.57C192.114 334.043 191.204 335.928 190.554 338.225C190.207 339.482 189.926 340.912 189.709 342.515C189.536 344.075 189.449 345.722 189.449 347.455V349.665ZM226.471 329.645V327.24C228.767 325.897 230.566 324.553 231.866 323.21C233.166 321.867 234.162 320.263 234.856 318.4H236.741V326.59H245.451V329.645H236.741V349.405C236.741 350.922 236.806 352.2 236.936 353.24C237.109 354.28 237.369 355.125 237.716 355.775C238.062 356.382 238.517 356.815 239.081 357.075C239.644 357.335 240.359 357.465 241.226 357.465C242.309 357.465 243.219 357.248 243.956 356.815C244.736 356.338 245.494 355.558 246.231 354.475L247.856 355.71C247.249 357.313 246.187 358.548 244.671 359.415C243.197 360.238 241.356 360.65 239.146 360.65C236.286 360.65 234.097 359.978 232.581 358.635C231.107 357.248 230.371 355.277 230.371 352.72V329.645H226.471ZM330.668 360.65C326.985 360.65 323.67 360.065 320.723 358.895C317.776 357.725 315.263 356.078 313.183 353.955C311.103 351.788 309.5 349.167 308.373 346.09C307.29 343.013 306.748 339.59 306.748 335.82C306.748 331.877 307.355 328.28 308.568 325.03C309.781 321.78 311.471 318.985 313.638 316.645C315.848 314.305 318.47 312.507 321.503 311.25C324.58 309.95 327.96 309.3 331.643 309.3C334.243 309.3 336.691 309.668 338.988 310.405C341.285 311.142 343.776 312.333 346.463 313.98L347.828 309.95H350.103L349.258 324.9H346.138C346.138 322.777 345.726 320.957 344.903 319.44C344.123 317.88 343.083 316.602 341.783 315.605C340.483 314.608 338.988 313.872 337.298 313.395C335.651 312.918 333.961 312.68 332.228 312.68C329.585 312.68 327.223 313.2 325.143 314.24C323.063 315.28 321.308 316.775 319.878 318.725C318.448 320.675 317.343 323.058 316.563 325.875C315.826 328.692 315.458 331.877 315.458 335.43C315.458 342.407 316.91 347.78 319.813 351.55C322.716 355.277 326.92 357.14 332.423 357.14C334.503 357.14 336.366 356.902 338.013 356.425C339.66 355.905 341.046 355.233 342.173 354.41C343.343 353.543 344.21 352.568 344.773 351.485C345.38 350.358 345.683 349.188 345.683 347.975C345.683 345.462 345.163 343.772 344.123 342.905C343.126 341.995 341.48 341.54 339.183 341.54V339.07H357.643V341.54C356.603 341.54 355.736 341.627 355.043 341.8C354.35 341.973 353.786 342.298 353.353 342.775C352.963 343.208 352.681 343.793 352.508 344.53C352.378 345.267 352.313 346.198 352.313 347.325V354.605C351.49 354.605 350.731 354.648 350.038 354.735C349.388 354.778 348.695 354.93 347.958 355.19C347.221 355.407 346.398 355.732 345.488 356.165C344.621 356.555 343.581 357.097 342.368 357.79C340.851 358.657 339.096 359.35 337.103 359.87C335.153 360.39 333.008 360.65 330.668 360.65ZM399.966 340.76C397.496 341.713 395.394 342.645 393.661 343.555C391.971 344.465 390.606 345.375 389.566 346.285C388.526 347.195 387.767 348.105 387.291 349.015C386.857 349.925 386.641 350.857 386.641 351.81C386.641 353.24 387.117 354.41 388.071 355.32C389.024 356.23 390.281 356.685 391.841 356.685C392.967 356.685 394.007 356.403 394.961 355.84C395.957 355.277 396.824 354.518 397.561 353.565C398.297 352.568 398.882 351.42 399.316 350.12C399.749 348.777 399.966 347.368 399.966 345.895V340.76ZM399.966 337.965V335.3C399.966 330.013 397.712 327.37 393.206 327.37C392.469 327.37 391.841 327.435 391.321 327.565C390.801 327.695 390.367 327.912 390.021 328.215C389.674 328.518 389.349 328.952 389.046 329.515C388.786 330.078 388.526 330.772 388.266 331.595C387.789 332.852 387.312 333.697 386.836 334.13C386.402 334.52 385.752 334.715 384.886 334.715C382.719 334.715 381.636 333.632 381.636 331.465C381.636 329.385 382.741 327.782 384.951 326.655C387.161 325.485 390.302 324.9 394.376 324.9C398.709 324.9 401.786 325.68 403.606 327.24C405.426 328.757 406.336 331.357 406.336 335.04V349.6C406.336 354.54 407.311 357.01 409.261 357.01C409.867 357.01 410.452 356.945 411.016 356.815C411.579 356.642 412.056 356.23 412.446 355.58L413.356 357.14C412.836 358.137 411.882 358.982 410.496 359.675C409.109 360.325 407.657 360.65 406.141 360.65C404.234 360.65 402.804 360.043 401.851 358.83C400.941 357.617 400.486 355.905 400.486 353.695H400.161C399.034 355.818 397.474 357.508 395.481 358.765C393.487 359.978 391.277 360.585 388.851 360.585C386.121 360.585 383.976 359.892 382.416 358.505C380.856 357.118 380.076 355.255 380.076 352.915C380.076 351.875 380.249 350.878 380.596 349.925C380.986 348.972 381.592 348.062 382.416 347.195C383.239 346.328 384.322 345.483 385.666 344.66C387.009 343.793 388.656 342.927 390.606 342.06L399.966 337.965ZM444.732 349.86C444.732 351.507 444.797 352.828 444.927 353.825C445.057 354.822 445.317 355.602 445.707 356.165C446.14 356.728 446.725 357.118 447.462 357.335C448.242 357.552 449.26 357.682 450.517 357.725V360H432.577V357.725C433.877 357.682 434.917 357.552 435.697 357.335C436.477 357.075 437.084 356.685 437.517 356.165C437.994 355.645 438.297 354.93 438.427 354.02C438.6 353.067 438.687 351.832 438.687 350.315V322.3C438.687 319.96 438.644 318.01 438.557 316.45C438.514 314.847 438.427 313.763 438.297 313.2C438.08 312.203 437.56 311.532 436.737 311.185C435.957 310.838 434.527 310.665 432.447 310.665V308.455L444.732 306.05V349.86ZM483.745 349.86C483.745 351.507 483.81 352.828 483.94 353.825C484.07 354.822 484.33 355.602 484.72 356.165C485.153 356.728 485.738 357.118 486.475 357.335C487.255 357.552 488.273 357.682 489.53 357.725V360H471.59V357.725C472.89 357.682 473.93 357.552 474.71 357.335C475.49 357.075 476.096 356.685 476.53 356.165C477.006 355.645 477.31 354.93 477.44 354.02C477.613 353.067 477.7 351.832 477.7 350.315V322.3C477.7 319.96 477.656 318.01 477.57 316.45C477.526 314.847 477.44 313.763 477.31 313.2C477.093 312.203 476.573 311.532 475.75 311.185C474.97 310.838 473.54 310.665 471.46 310.665V308.455L483.745 306.05V349.86ZM543.102 353.955C539.419 358.418 534.847 360.65 529.387 360.65C526.831 360.65 524.512 360.238 522.432 359.415C520.352 358.548 518.554 357.357 517.037 355.84C515.564 354.28 514.416 352.438 513.592 350.315C512.769 348.148 512.357 345.765 512.357 343.165C512.357 340.522 512.791 338.073 513.657 335.82C514.524 333.567 515.737 331.638 517.297 330.035C518.901 328.432 520.786 327.175 522.952 326.265C525.162 325.355 527.567 324.9 530.167 324.9C534.371 324.9 537.621 326.048 539.917 328.345C542.214 330.598 543.362 333.848 543.362 338.095C543.362 338.702 543.232 339.07 542.972 339.2C542.756 339.33 542.214 339.395 541.347 339.395H519.962C519.876 339.742 519.811 340.175 519.767 340.695C519.724 341.172 519.702 341.713 519.702 342.32C519.702 344.573 519.962 346.632 520.482 348.495C521.046 350.315 521.826 351.875 522.822 353.175C523.862 354.475 525.076 355.493 526.462 356.23C527.892 356.923 529.474 357.27 531.207 357.27C533.027 357.27 534.717 356.88 536.277 356.1C537.837 355.277 539.441 353.955 541.087 352.135L543.102 353.955ZM532.377 336.405C533.244 336.405 533.937 336.383 534.457 336.34C534.977 336.297 535.367 336.21 535.627 336.08C535.887 335.95 536.061 335.777 536.147 335.56C536.234 335.3 536.277 334.975 536.277 334.585C536.277 332.592 535.627 331.01 534.327 329.84C533.071 328.627 531.337 328.02 529.127 328.02C524.447 328.02 521.544 330.815 520.417 336.405H532.377ZM578.738 349.665C578.738 351.442 578.781 352.85 578.868 353.89C578.955 354.93 579.171 355.732 579.518 356.295C579.908 356.815 580.45 357.162 581.143 357.335C581.836 357.508 582.811 357.638 584.068 357.725V360H566.778V357.725C568.035 357.682 569.031 357.573 569.768 357.4C570.505 357.183 571.068 356.815 571.458 356.295C571.848 355.775 572.086 355.038 572.173 354.085C572.303 353.088 572.368 351.767 572.368 350.12V342.515C572.368 339.568 572.325 337.272 572.238 335.625C572.195 333.978 571.978 332.765 571.588 331.985C571.241 331.205 570.678 330.75 569.898 330.62C569.118 330.447 568.035 330.36 566.648 330.36V328.085L578.023 325.615L578.933 333.675H579.193C579.756 332.375 580.45 331.183 581.273 330.1C582.14 329.017 583.071 328.107 584.068 327.37C585.065 326.59 586.105 325.983 587.188 325.55C588.271 325.117 589.376 324.9 590.503 324.9C591.89 324.9 592.973 325.247 593.753 325.94C594.576 326.59 594.988 327.478 594.988 328.605C594.988 329.645 594.663 330.468 594.013 331.075C593.363 331.638 592.431 331.92 591.218 331.92C590.525 331.92 589.94 331.833 589.463 331.66C588.986 331.487 588.553 331.313 588.163 331.14C587.816 330.923 587.47 330.728 587.123 330.555C586.82 330.382 586.473 330.295 586.083 330.295C584.913 330.295 583.743 331.053 582.573 332.57C581.403 334.043 580.493 335.928 579.843 338.225C579.496 339.482 579.215 340.912 578.998 342.515C578.825 344.075 578.738 345.722 578.738 347.455V349.665ZM631.425 370.205C629.431 374.668 626.333 376.9 622.13 376.9C619.4 376.9 618.035 375.882 618.035 373.845C618.035 372.762 618.403 371.96 619.14 371.44C619.92 370.963 621.328 370.552 623.365 370.205C624.275 370.075 625.055 369.88 625.705 369.62C626.355 369.403 626.94 369.1 627.46 368.71C627.98 368.363 628.435 367.908 628.825 367.345C629.258 366.782 629.67 366.088 630.06 365.265L632.335 360.715L619.855 333.61C619.291 332.397 618.793 331.443 618.36 330.75C617.97 330.013 617.536 329.45 617.06 329.06C616.626 328.627 616.128 328.345 615.565 328.215C615.001 328.042 614.286 327.912 613.42 327.825V325.55H630.645V327.825C627.741 327.825 626.29 328.54 626.29 329.97C626.29 330.533 626.463 331.422 626.81 332.635C627.156 333.848 627.59 335.083 628.11 336.34L635.26 353.63H635.585L641.5 339.005C642.063 337.575 642.518 336.405 642.865 335.495C643.255 334.585 643.536 333.848 643.71 333.285C643.926 332.678 644.056 332.18 644.1 331.79C644.186 331.4 644.23 331.032 644.23 330.685C644.23 329.558 643.905 328.8 643.255 328.41C642.648 328.02 641.456 327.825 639.68 327.825V325.55H653.98V327.825C653.156 327.825 652.463 327.933 651.9 328.15C651.336 328.367 650.751 328.865 650.145 329.645C649.581 330.382 648.931 331.465 648.195 332.895C647.501 334.325 646.635 336.253 645.595 338.68L631.425 370.205ZM737.863 309.3C741.676 309.3 745.229 309.972 748.523 311.315C751.816 312.658 754.676 314.5 757.103 316.84C759.529 319.18 761.436 321.932 762.823 325.095C764.209 328.258 764.903 331.682 764.903 335.365C764.903 338.875 764.188 342.168 762.758 345.245C761.371 348.322 759.464 351.008 757.038 353.305C754.611 355.558 751.751 357.357 748.458 358.7C745.164 360 741.633 360.65 737.863 360.65C734.093 360.65 730.561 360 727.268 358.7C723.974 357.357 721.114 355.558 718.688 353.305C716.261 351.008 714.333 348.322 712.903 345.245C711.516 342.168 710.823 338.875 710.823 335.365C710.823 331.682 711.516 328.258 712.903 325.095C714.289 321.932 716.196 319.18 718.623 316.84C721.049 314.5 723.909 312.658 727.203 311.315C730.496 309.972 734.049 309.3 737.863 309.3ZM737.863 357.075C740.723 357.075 743.279 356.577 745.533 355.58C747.829 354.583 749.779 353.153 751.383 351.29C753.029 349.427 754.286 347.173 755.153 344.53C756.019 341.843 756.453 338.853 756.453 335.56C756.453 332.093 756.019 328.973 755.153 326.2C754.286 323.383 753.051 321 751.448 319.05C749.844 317.057 747.894 315.54 745.598 314.5C743.301 313.417 740.723 312.875 737.863 312.875C735.003 312.875 732.424 313.417 730.128 314.5C727.831 315.54 725.881 317.057 724.278 319.05C722.674 321 721.439 323.383 720.573 326.2C719.706 328.973 719.273 332.093 719.273 335.56C719.273 338.853 719.706 341.843 720.573 344.53C721.439 347.173 722.674 349.427 724.278 351.29C725.881 353.153 727.831 354.583 730.128 355.58C732.424 356.577 735.003 357.075 737.863 357.075ZM787.931 326.59H795.276V321.91C795.276 316.927 796.576 313.048 799.176 310.275C801.82 307.458 805.568 306.05 810.421 306.05C813.108 306.05 815.296 306.462 816.986 307.285C818.676 308.108 819.521 309.17 819.521 310.47C819.521 311.337 819.24 312.073 818.676 312.68C818.156 313.243 817.485 313.525 816.661 313.525C816.141 313.525 815.578 313.373 814.971 313.07C814.408 312.723 813.65 312.16 812.696 311.38C811.613 310.47 810.768 309.885 810.161 309.625C809.555 309.322 808.84 309.17 808.016 309.17C805.416 309.17 803.553 310.492 802.426 313.135C802.036 314.002 801.755 315.063 801.581 316.32C801.451 317.577 801.386 319.31 801.386 321.52V326.59H811.851V329.645H801.386V349.535C801.386 351.138 801.473 352.46 801.646 353.5C801.863 354.54 802.21 355.385 802.686 356.035C803.206 356.642 803.9 357.075 804.766 357.335C805.633 357.552 806.76 357.682 808.146 357.725V360H789.686V357.725C790.9 357.682 791.875 357.573 792.611 357.4C793.348 357.183 793.911 356.815 794.301 356.295C794.691 355.732 794.951 354.973 795.081 354.02C795.211 353.023 795.276 351.702 795.276 350.055V329.645H787.931V326.59ZM884.601 349.665C884.601 351.312 884.687 352.655 884.861 353.695C885.077 354.692 885.511 355.472 886.161 356.035C886.811 356.555 887.721 356.923 888.891 357.14C890.104 357.357 891.686 357.487 893.636 357.53V360H870.626V357.53C872.142 357.487 873.356 357.357 874.266 357.14C875.219 356.923 875.956 356.555 876.476 356.035C876.996 355.515 877.342 354.778 877.516 353.825C877.689 352.872 877.776 351.637 877.776 350.12V319.83C877.776 318.313 877.689 317.1 877.516 316.19C877.386 315.237 877.082 314.5 876.606 313.98C876.172 313.417 875.522 313.048 874.656 312.875C873.789 312.658 872.662 312.507 871.276 312.42V309.95H908.846L909.561 322.365H907.286C907.026 320.502 906.614 318.985 906.051 317.815C905.487 316.602 904.686 315.648 903.646 314.955C902.649 314.262 901.371 313.785 899.811 313.525C898.251 313.222 896.301 313.07 893.961 313.07H885.706C884.969 313.07 884.601 313.438 884.601 314.175V333.805C886.681 333.805 888.457 333.697 889.931 333.48C891.447 333.22 892.682 332.787 893.636 332.18C894.632 331.573 895.391 330.75 895.911 329.71C896.431 328.67 896.756 327.327 896.886 325.68H899.161V344.725H896.886C896.669 343.078 896.322 341.713 895.846 340.63C895.369 339.547 894.654 338.702 893.701 338.095C892.791 337.488 891.599 337.055 890.126 336.795C888.652 336.535 886.811 336.405 884.601 336.405V349.665ZM942.979 349.665C942.979 351.442 943.023 352.85 943.109 353.89C943.196 354.93 943.413 355.732 943.759 356.295C944.149 356.815 944.691 357.162 945.384 357.335C946.078 357.508 947.053 357.638 948.309 357.725V360H931.019V357.725C932.276 357.682 933.273 357.573 934.009 357.4C934.746 357.183 935.309 356.815 935.699 356.295C936.089 355.775 936.328 355.038 936.414 354.085C936.544 353.088 936.609 351.767 936.609 350.12V342.515C936.609 339.568 936.566 337.272 936.479 335.625C936.436 333.978 936.219 332.765 935.829 331.985C935.483 331.205 934.919 330.75 934.139 330.62C933.359 330.447 932.276 330.36 930.889 330.36V328.085L942.264 325.615L943.174 333.675H943.434C943.998 332.375 944.691 331.183 945.514 330.1C946.381 329.017 947.313 328.107 948.309 327.37C949.306 326.59 950.346 325.983 951.429 325.55C952.513 325.117 953.618 324.9 954.744 324.9C956.131 324.9 957.214 325.247 957.994 325.94C958.818 326.59 959.229 327.478 959.229 328.605C959.229 329.645 958.904 330.468 958.254 331.075C957.604 331.638 956.673 331.92 955.459 331.92C954.766 331.92 954.181 331.833 953.704 331.66C953.228 331.487 952.794 331.313 952.404 331.14C952.058 330.923 951.711 330.728 951.364 330.555C951.061 330.382 950.714 330.295 950.324 330.295C949.154 330.295 947.984 331.053 946.814 332.57C945.644 334.043 944.734 335.928 944.084 338.225C943.738 339.482 943.456 340.912 943.239 342.515C943.066 344.075 942.979 345.722 942.979 347.455V349.665ZM1000.09 340.76C997.616 341.713 995.514 342.645 993.781 343.555C992.091 344.465 990.726 345.375 989.686 346.285C988.646 347.195 987.888 348.105 987.411 349.015C986.978 349.925 986.761 350.857 986.761 351.81C986.761 353.24 987.238 354.41 988.191 355.32C989.144 356.23 990.401 356.685 991.961 356.685C993.088 356.685 994.128 356.403 995.081 355.84C996.078 355.277 996.944 354.518 997.681 353.565C998.418 352.568 999.003 351.42 999.436 350.12C999.869 348.777 1000.09 347.368 1000.09 345.895V340.76ZM1000.09 337.965V335.3C1000.09 330.013 997.833 327.37 993.326 327.37C992.589 327.37 991.961 327.435 991.441 327.565C990.921 327.695 990.488 327.912 990.141 328.215C989.794 328.518 989.469 328.952 989.166 329.515C988.906 330.078 988.646 330.772 988.386 331.595C987.909 332.852 987.433 333.697 986.956 334.13C986.523 334.52 985.873 334.715 985.006 334.715C982.839 334.715 981.756 333.632 981.756 331.465C981.756 329.385 982.861 327.782 985.071 326.655C987.281 325.485 990.423 324.9 994.496 324.9C998.829 324.9 1001.91 325.68 1003.73 327.24C1005.55 328.757 1006.46 331.357 1006.46 335.04V349.6C1006.46 354.54 1007.43 357.01 1009.38 357.01C1009.99 357.01 1010.57 356.945 1011.14 356.815C1011.7 356.642 1012.18 356.23 1012.57 355.58L1013.48 357.14C1012.96 358.137 1012 358.982 1010.62 359.675C1009.23 360.325 1007.78 360.65 1006.26 360.65C1004.35 360.65 1002.92 360.043 1001.97 358.83C1001.06 357.617 1000.61 355.905 1000.61 353.695H1000.28C999.154 355.818 997.594 357.508 995.601 358.765C993.608 359.978 991.398 360.585 988.971 360.585C986.241 360.585 984.096 359.892 982.536 358.505C980.976 357.118 980.196 355.255 980.196 352.915C980.196 351.875 980.369 350.878 980.716 349.925C981.106 348.972 981.713 348.062 982.536 347.195C983.359 346.328 984.443 345.483 985.786 344.66C987.129 343.793 988.776 342.927 990.726 342.06L1000.09 337.965ZM1045.31 349.795C1045.31 351.572 1045.35 352.98 1045.44 354.02C1045.52 355.017 1045.74 355.797 1046.09 356.36C1046.48 356.88 1047.02 357.227 1047.71 357.4C1048.45 357.573 1049.45 357.703 1050.7 357.79V360H1033.67V357.79C1034.89 357.703 1035.84 357.573 1036.53 357.4C1037.27 357.227 1037.83 356.88 1038.22 356.36C1038.61 355.84 1038.85 355.103 1038.94 354.15C1039.07 353.197 1039.13 351.897 1039.13 350.25V341.605C1039.13 336.448 1039 333.307 1038.74 332.18C1038.61 331.617 1038.44 331.162 1038.22 330.815C1038.05 330.425 1037.77 330.143 1037.38 329.97C1036.99 329.753 1036.49 329.623 1035.88 329.58C1035.28 329.493 1034.5 329.45 1033.54 329.45V327.37L1043.94 324.9L1044.72 331.335H1044.98C1046.63 329.298 1048.56 327.717 1050.77 326.59C1052.98 325.463 1055.38 324.9 1057.98 324.9C1059.98 324.9 1061.8 325.225 1063.44 325.875C1065.09 326.525 1066.35 327.413 1067.21 328.54C1067.95 329.537 1068.47 330.837 1068.77 332.44C1069.08 334 1069.23 336.167 1069.23 338.94V349.795C1069.23 351.572 1069.27 352.98 1069.36 354.02C1069.49 355.017 1069.73 355.797 1070.07 356.36C1070.42 356.88 1070.94 357.227 1071.63 357.4C1072.37 357.573 1073.32 357.703 1074.49 357.79V360H1057.66V357.79C1058.87 357.747 1059.82 357.638 1060.52 357.465C1061.25 357.248 1061.8 356.88 1062.14 356.36C1062.53 355.84 1062.77 355.103 1062.86 354.15C1062.99 353.153 1063.05 351.853 1063.05 350.25V341.67C1063.05 339.2 1062.92 337.12 1062.66 335.43C1062.4 333.74 1061.97 332.375 1061.36 331.335C1060.8 330.295 1060.04 329.558 1059.09 329.125C1058.13 328.648 1056.99 328.41 1055.64 328.41C1053.69 328.41 1051.89 328.93 1050.25 329.97C1048.64 330.967 1047.39 332.353 1046.48 334.13C1046.26 334.563 1046.07 334.975 1045.89 335.365C1045.76 335.755 1045.65 336.21 1045.57 336.73C1045.48 337.25 1045.42 337.857 1045.37 338.55C1045.33 339.2 1045.31 340.045 1045.31 341.085V349.795ZM1126.85 354.605C1125.29 356.512 1123.27 358.007 1120.8 359.09C1118.33 360.13 1115.67 360.65 1112.81 360.65C1110.51 360.65 1108.39 360.238 1106.44 359.415C1104.53 358.548 1102.88 357.357 1101.5 355.84C1100.11 354.28 1099.03 352.417 1098.25 350.25C1097.51 348.083 1097.14 345.678 1097.14 343.035C1097.14 340.262 1097.57 337.77 1098.44 335.56C1099.31 333.307 1100.52 331.4 1102.08 329.84C1103.68 328.237 1105.59 327.023 1107.8 326.2C1110.05 325.333 1112.52 324.9 1115.21 324.9C1116.9 324.9 1118.44 325.052 1119.83 325.355C1121.21 325.615 1122.4 326.005 1123.4 326.525C1124.44 327.002 1125.24 327.608 1125.81 328.345C1126.37 329.038 1126.65 329.797 1126.65 330.62C1126.65 331.487 1126.37 332.158 1125.81 332.635C1125.24 333.112 1124.46 333.35 1123.47 333.35C1122.69 333.35 1122.04 333.198 1121.52 332.895C1121 332.548 1120.32 331.812 1119.5 330.685C1118.63 329.688 1117.79 328.995 1116.97 328.605C1116.19 328.172 1115.17 327.955 1113.91 327.955C1110.83 327.955 1108.49 329.147 1106.89 331.53C1105.33 333.913 1104.55 337.423 1104.55 342.06C1104.55 347.043 1105.42 350.835 1107.15 353.435C1108.93 355.992 1111.51 357.27 1114.89 357.27C1116.71 357.27 1118.42 356.923 1120.02 356.23C1121.62 355.493 1123.25 354.323 1124.9 352.72L1126.85 354.605ZM1180.61 353.955C1176.93 358.418 1172.36 360.65 1166.9 360.65C1164.34 360.65 1162.02 360.238 1159.94 359.415C1157.86 358.548 1156.06 357.357 1154.55 355.84C1153.07 354.28 1151.92 352.438 1151.1 350.315C1150.28 348.148 1149.87 345.765 1149.87 343.165C1149.87 340.522 1150.3 338.073 1151.17 335.82C1152.03 333.567 1153.25 331.638 1154.81 330.035C1156.41 328.432 1158.29 327.175 1160.46 326.265C1162.67 325.355 1165.08 324.9 1167.68 324.9C1171.88 324.9 1175.13 326.048 1177.43 328.345C1179.72 330.598 1180.87 333.848 1180.87 338.095C1180.87 338.702 1180.74 339.07 1180.48 339.2C1180.26 339.33 1179.72 339.395 1178.86 339.395H1157.47C1157.38 339.742 1157.32 340.175 1157.28 340.695C1157.23 341.172 1157.21 341.713 1157.21 342.32C1157.21 344.573 1157.47 346.632 1157.99 348.495C1158.55 350.315 1159.33 351.875 1160.33 353.175C1161.37 354.475 1162.58 355.493 1163.97 356.23C1165.4 356.923 1166.98 357.27 1168.72 357.27C1170.54 357.27 1172.23 356.88 1173.79 356.1C1175.35 355.277 1176.95 353.955 1178.6 352.135L1180.61 353.955ZM1169.89 336.405C1170.75 336.405 1171.45 336.383 1171.97 336.34C1172.49 336.297 1172.88 336.21 1173.14 336.08C1173.4 335.95 1173.57 335.777 1173.66 335.56C1173.74 335.3 1173.79 334.975 1173.79 334.585C1173.79 332.592 1173.14 331.01 1171.84 329.84C1170.58 328.627 1168.85 328.02 1166.64 328.02C1161.96 328.02 1159.05 330.815 1157.93 336.405H1169.89Z" fill="white"/>
</svg>
